<svg width="48" height="48" viewBox="0 0 48 48" fill="none" xmlns="http://www.w3.org/2000/svg">
<path d="M46.4 40.8001V7.20001C47.36 6.40005 48 5.28003 48 3.99998C48 1.76004 46.24 0 44 0C42.7199 0 41.5199 0.640024 40.7999 1.60001H7.19995C6.39999 0.640024 5.27997 0 3.99992 0C1.75998 0 -6.10352e-05 1.76004 -6.10352e-05 3.99998C-6.10352e-05 5.28003 0.639963 6.48002 1.59995 7.20001V40.8001C0.639963 41.6 -6.10352e-05 42.7201 -6.10352e-05 44C-6.10352e-05 46.2401 1.75998 48 3.99992 48C5.27997 48 6.47996 47.36 7.19995 46.4H40.8C41.6 47.36 42.72 48 44.0001 48C46.2401 48 48 46.24 48 44C48 42.7201 47.36 41.5201 46.4 40.8001ZM44 46.4001C43.1199 46.4001 42.32 45.9201 41.92 45.2001C41.7599 44.9601 41.5199 44.8001 41.2 44.8001H6.71995C6.47996 44.8001 6.23996 44.9601 6.07993 45.2001C5.59994 45.9201 4.87994 46.4001 3.99992 46.4001C2.63991 46.4001 1.59995 45.3601 1.59995 44.0001C1.59995 43.2002 2.07995 42.4001 2.79994 42.0001C3.03993 41.84 3.19996 41.6 3.19996 41.2801V6.79998C3.19996 6.48002 3.03993 6.24002 2.79994 6.07999C2.07995 5.67996 1.59995 4.88001 1.59995 3.99998C1.59995 2.63997 2.63991 1.60001 3.99992 1.60001C4.87994 1.60001 5.59994 2.08001 5.99996 2.8C6.15999 3.04 6.39999 3.20003 6.71995 3.20003H41.2C41.5199 3.20003 41.7599 3.04 41.92 2.8C42.3999 2.08001 43.1199 1.60001 44 1.60001C45.36 1.60001 46.3999 2.63997 46.3999 3.99998C46.3999 4.88001 45.9199 5.67996 45.1999 6.07999C44.9599 6.24002 44.7999 6.48002 44.7999 6.79998V41.2C44.7999 41.52 44.9599 41.76 45.1999 41.92C45.9199 42.4 46.3999 43.12 46.3999 44C46.4 45.36 45.36 46.4001 44 46.4001Z" fill="#00BF78"/>
</svg>
