<?xml version="1.0" standalone="no"?>
<!DOCTYPE svg PUBLIC "-//W3C//DTD SVG 20010904//EN"
 "http://www.w3.org/TR/2001/REC-SVG-20010904/DTD/svg10.dtd">
<svg version="1.0" xmlns="http://www.w3.org/2000/svg"
 width="1000.000000pt" height="1000.000000pt" viewBox="0 0 1000.000000 1000.000000"
 preserveAspectRatio="xMidYMid meet">
<metadata>
Created by potrace 1.16, written by Peter Selinger 2001-2019
</metadata>
<g transform="translate(0.000000,1000.000000) scale(0.100000,-0.100000)"
fill="#000000" stroke="none">
<path d="M5845 9958 c-46 -25 -60 -82 -30 -125 30 -42 121 -34 139 12 17 46 4
91 -35 110 -33 18 -47 18 -74 3z"/>
<path d="M1943 9691 c-232 -103 -431 -195 -442 -205 -12 -11 -21 -32 -21 -49
0 -45 148 -375 177 -394 22 -15 59 -14 95 1 11 5 20 1 27 -12 9 -16 5 -23 -26
-43 -66 -43 -65 -55 29 -266 101 -226 105 -230 202 -190 171 70 823 362 839
375 32 28 20 79 -61 262 -65 147 -82 177 -106 189 -24 11 -36 12 -64 1 -32
-11 -37 -10 -49 6 -12 16 -10 20 18 35 31 15 58 51 59 77 0 22 -151 357 -172
380 -14 14 -33 22 -52 21 -17 0 -220 -84 -453 -188z m486 145 c15 -17 161
-346 161 -362 0 -6 -8 -18 -17 -27 -21 -18 -853 -387 -874 -387 -29 0 -42 21
-115 184 -74 168 -85 205 -61 224 23 19 852 381 873 382 12 0 27 -6 33 -14z
m86 -483 c4 -11 1 -21 -7 -26 -7 -5 -164 -75 -348 -157 -297 -131 -336 -146
-347 -132 -7 9 -13 19 -13 22 0 7 679 309 696 310 7 0 15 -8 19 -17z m133 -21
c7 -5 48 -89 91 -186 59 -133 77 -184 72 -200 -6 -16 -111 -66 -446 -214 -267
-118 -444 -190 -455 -187 -11 4 -40 54 -76 133 -94 209 -106 240 -95 261 9 16
859 401 886 401 6 0 16 -4 23 -8z"/>
<path d="M2057 9618 c-64 -113 -137 -249 -137 -258 0 -5 4 -11 9 -14 5 -4 30
32 56 80 26 47 48 84 50 82 2 -2 -9 -55 -25 -118 -34 -131 -35 -140 -17 -140
11 0 197 358 197 380 0 6 -6 10 -13 10 -7 0 -37 -49 -67 -110 -30 -60 -56
-108 -58 -106 -2 2 8 53 23 112 29 121 22 152 -18 82z"/>
<path d="M2563 9270 c-49 -20 -58 -95 -17 -137 49 -49 134 -10 134 62 0 60
-61 99 -117 75z"/>
<path d="M2385 9190 c-29 -11 -44 -32 -51 -68 -5 -26 -1 -36 24 -62 32 -32 60
-37 95 -18 55 29 63 84 18 129 -30 30 -50 34 -86 19z"/>
<path d="M2180 9092 c-38 -38 -40 -79 -5 -116 34 -37 77 -35 117 4 25 26 29
36 24 63 -8 41 -32 65 -73 73 -27 5 -37 1 -63 -24z"/>
<path d="M2654 9080 c-26 -10 -54 -48 -54 -72 0 -30 21 -65 47 -77 39 -18 63
-13 95 19 25 26 29 36 24 63 -11 55 -64 87 -112 67z"/>
<path d="M2021 9029 c-55 -22 -69 -92 -26 -134 51 -52 135 -17 135 56 0 37
-26 79 -49 79 -5 0 -15 2 -23 4 -7 3 -24 0 -37 -5z"/>
<path d="M2471 8999 c-55 -22 -69 -92 -26 -134 51 -52 135 -17 135 56 0 37
-26 79 -49 79 -5 0 -15 2 -23 4 -7 3 -24 0 -37 -5z"/>
<path d="M1832 8944 c-32 -13 -56 -62 -45 -92 22 -63 94 -82 138 -37 30 30 32
73 5 107 -24 31 -59 39 -98 22z"/>
<path d="M2282 8914 c-56 -23 -62 -102 -10 -138 77 -54 167 42 108 116 -24 31
-59 39 -98 22z"/>
<path d="M2079 8821 c-18 -14 -24 -29 -24 -61 0 -49 29 -80 75 -80 42 0 59 9
75 41 21 40 19 66 -10 94 -30 31 -83 33 -116 6z"/>
<path d="M1891 8734 c-28 -36 -27 -79 4 -109 62 -62 162 2 134 85 -13 36 -36
50 -83 50 -25 0 -40 -7 -55 -26z"/>
<path d="M3062 9837 c-49 -52 -13 -137 57 -137 68 0 104 78 60 134 -27 35 -86
36 -117 3z"/>
<path d="M1342 9827 c-32 -34 -30 -89 4 -116 56 -44 134 -8 134 62 0 69 -90
105 -138 54z"/>
<path d="M6691 9820 c-22 -17 -51 -45 -63 -64 -19 -28 -30 -35 -68 -39 -25 -3
-65 -13 -89 -23 l-43 -17 6 -50 c4 -28 15 -67 25 -88 18 -37 18 -39 0 -77 -11
-21 -22 -62 -26 -89 l-6 -51 57 -21 c31 -11 71 -21 89 -21 26 -1 37 -8 58 -39
15 -21 43 -51 63 -66 33 -25 38 -26 58 -12 29 18 76 65 95 93 10 15 27 23 61
26 26 3 65 13 86 22 l39 16 -6 54 c-3 30 -13 68 -22 86 -16 30 -16 35 -1 69 9
20 20 59 26 86 7 42 6 52 -8 63 -20 15 -107 42 -136 42 -13 0 -40 22 -69 55
-68 78 -76 81 -126 45z m98 -55 l42 -45 -35 -30 c-19 -17 -43 -51 -53 -75 -22
-55 -46 -65 -79 -34 -37 35 -48 80 -29 125 16 39 78 104 99 104 8 0 32 -20 55
-45z m-189 -109 c0 -22 12 -52 33 -83 25 -38 32 -55 26 -71 -7 -19 -16 -22
-63 -22 -49 0 -57 3 -84 34 -27 31 -61 130 -49 142 11 11 83 33 110 34 24 0
27 -3 27 -34z m377 12 c32 -15 33 -34 7 -105 l-16 -43 -31 16 c-23 12 -46 15
-93 11 -47 -5 -65 -3 -74 8 -18 21 5 79 43 111 28 23 37 26 84 21 28 -3 65
-12 80 -19z m-26 -179 c16 -17 33 -47 39 -67 22 -80 10 -97 -75 -108 -44 -7
-45 -6 -45 20 0 30 -31 96 -54 115 -19 16 -21 57 -3 64 6 3 34 6 60 6 42 1 53
-3 78 -30z m-343 -34 c97 -2 110 -14 80 -75 -13 -25 -34 -51 -48 -58 -28 -14
-107 -11 -154 7 -26 11 -28 14 -22 51 10 66 27 93 50 84 12 -4 54 -9 94 -9z
m202 -45 c46 -64 35 -123 -34 -189 -31 -30 -38 -33 -60 -23 -13 6 -36 26 -51
46 l-26 35 39 39 c22 22 43 54 47 71 12 55 53 66 85 21z"/>
<path d="M9655 9808 c-53 -31 -60 -85 -16 -129 16 -16 37 -29 46 -29 24 0 72
27 79 45 30 78 -42 152 -109 113z"/>
<path d="M116 9785 c-20 -20 -14 -46 21 -94 30 -39 131 -107 174 -116 19 -4
39 -21 59 -50 16 -23 36 -45 43 -48 10 -4 16 -26 19 -64 10 -142 127 -267 288
-309 181 -46 334 65 317 231 -16 160 -175 301 -351 313 -52 3 -82 0 -111 -12
-37 -16 -44 -16 -105 0 -50 14 -77 28 -117 65 -90 81 -200 120 -237 84z m119
-39 c28 -13 76 -46 107 -74 40 -35 69 -52 97 -57 48 -8 58 -20 38 -43 -8 -9
-21 -30 -29 -46 l-15 -29 -34 43 c-22 27 -54 51 -89 67 -30 13 -72 36 -94 51
-41 28 -89 90 -80 104 9 14 48 8 99 -16z m576 -159 c69 -33 140 -102 173 -169
62 -124 12 -248 -112 -284 -104 -31 -220 5 -316 96 -112 106 -131 256 -44 337
65 61 194 70 299 20z"/>
<path d="M655 9558 c3 -18 14 -114 25 -212 11 -99 22 -181 25 -184 3 -3 9 -1
14 4 6 5 4 56 -4 128 -8 66 -13 121 -11 123 4 4 61 -149 72 -192 3 -14 12 -25
20 -25 17 0 17 24 1 209 -9 98 -16 136 -26 139 -11 4 -13 -13 -7 -99 l6 -104
-30 80 c-17 44 -37 99 -46 123 -19 51 -48 59 -39 10z"/>
<path d="M4726 9773 c-14 -14 -2 -22 87 -58 50 -21 93 -39 94 -40 2 -1 -127
-318 -132 -323 -1 -2 -41 13 -88 33 -89 36 -121 43 -115 24 3 -10 37 -26 171
-80 l48 -19 13 32 c8 18 41 100 75 181 33 81 61 152 61 158 0 16 -203 103
-214 92z"/>
<path d="M8930 9745 c-26 -27 -37 -32 -51 -25 -30 16 -56 11 -89 -17 -38 -32
-50 -59 -40 -94 7 -23 2 -33 -31 -65 -26 -25 -36 -41 -29 -48 7 -7 23 3 50 29
33 32 41 36 55 25 23 -19 19 -32 -22 -67 -31 -25 -36 -34 -25 -44 10 -11 19
-6 50 24 37 36 39 37 55 19 16 -17 15 -20 -18 -52 -31 -30 -46 -60 -29 -60 3
0 25 16 48 35 41 33 44 34 59 17 16 -17 14 -21 -23 -57 -27 -26 -37 -42 -30
-49 7 -7 24 3 51 29 39 39 41 39 55 21 20 -28 19 -31 -23 -65 -29 -24 -35 -33
-25 -43 9 -9 20 -4 50 25 38 37 39 37 56 18 17 -19 17 -21 -18 -51 -32 -28
-48 -60 -30 -60 4 0 26 16 49 35 40 33 43 33 59 17 15 -17 13 -21 -24 -57 -27
-26 -37 -42 -30 -49 7 -7 23 2 48 27 l38 38 19 -21 c18 -20 18 -21 -18 -58
-20 -21 -37 -41 -37 -45 0 -17 29 -4 60 28 36 37 54 37 44 1 -6 -26 36 -64
108 -95 48 -21 63 -36 100 -101 78 -136 271 -265 321 -215 20 19 22 72 5 112
-35 83 -133 195 -218 248 -32 20 -48 42 -75 98 -44 94 -58 111 -84 102 -33
-10 -26 16 14 55 23 23 32 37 25 44 -7 7 -23 -3 -50 -29 -22 -21 -41 -37 -43
-34 -1 2 -8 12 -15 21 -11 14 -8 21 25 52 27 24 35 38 27 45 -7 8 -22 1 -51
-24 -38 -33 -41 -34 -57 -17 -15 17 -13 21 19 52 31 30 46 60 29 60 -3 0 -24
-16 -47 -35 -31 -27 -43 -32 -54 -24 -20 18 -16 32 22 69 23 23 32 37 25 44
-7 7 -23 -2 -48 -27 l-38 -38 -20 22 c-19 21 -19 21 19 53 37 31 48 56 24 56
-7 0 -28 -16 -47 -35 -32 -33 -35 -34 -52 -18 -18 16 -17 18 17 53 31 32 45
60 29 60 -3 0 -24 -16 -47 -35 -31 -27 -43 -32 -54 -24 -20 18 -16 32 22 69
23 23 32 37 25 44 -7 7 -23 -2 -48 -27 l-38 -38 -20 22 c-19 21 -19 21 19 53
37 31 48 56 24 56 -7 0 -28 -16 -47 -35z m-41 -72 c15 -16 97 -102 182 -193
84 -91 171 -184 193 -207 l40 -43 -39 -40 c-22 -22 -45 -39 -51 -38 -10 3
-108 106 -396 415 -51 55 -53 68 -15 111 27 29 51 28 86 -5z m492 -493 c11
-19 25 -51 33 -71 10 -25 36 -53 88 -92 73 -55 149 -140 182 -204 20 -40 21
-92 2 -99 -45 -17 -203 106 -268 210 -46 74 -67 95 -120 118 -26 11 -55 29
-65 40 -18 20 -17 21 45 80 35 32 68 58 74 56 6 -2 19 -19 29 -38z"/>
<path d="M3873 9660 c-44 -18 -43 -98 2 -118 24 -11 25 -14 25 -118 l0 -106
-47 -84 c-45 -78 -50 -84 -80 -84 -26 0 -37 7 -54 33 -24 35 -95 97 -112 97
-7 0 -39 -29 -72 -63 -53 -56 -67 -65 -106 -69 -24 -3 -61 -13 -83 -22 l-39
-16 6 -49 c3 -28 14 -67 25 -89 19 -39 19 -40 0 -77 -11 -20 -22 -61 -25 -90
l-6 -53 68 -21 c37 -12 78 -21 91 -21 13 0 24 -5 24 -10 0 -20 99 -110 120
-110 21 0 120 90 120 110 0 5 13 10 28 10 16 0 51 8 78 17 38 13 101 18 286
22 334 8 327 -10 138 325 l-140 248 0 104 c0 102 0 105 25 114 49 19 53 95 6
119 -24 13 -247 13 -278 1z m271 -36 c9 -8 16 -19 16 -24 0 -5 -7 -16 -16 -24
-12 -13 -39 -16 -125 -16 -115 0 -149 9 -149 38 0 36 21 42 141 42 94 0 121
-3 133 -16z m-54 -201 l0 -108 50 -89 c38 -67 47 -91 38 -98 -24 -15 -117 -8
-170 13 -36 14 -69 20 -105 17 -29 -2 -53 1 -53 5 0 5 18 39 40 77 l40 68 0
111 0 111 80 0 80 0 0 -107z m-390 -269 c0 -6 -12 -19 -26 -29 -14 -9 -37 -41
-50 -70 -14 -29 -32 -56 -41 -59 -22 -9 -61 30 -74 74 -14 47 6 94 63 146 l40
36 44 -43 c24 -24 44 -48 44 -55z m312 -45 c41 -16 70 -20 128 -17 l74 3 77
-135 c43 -74 78 -138 78 -142 1 -4 -6 -14 -15 -22 -13 -14 -48 -16 -228 -16
l-213 0 -7 40 c-3 22 -13 55 -22 74 -16 31 -15 37 5 90 26 70 27 121 4 135
-35 20 64 12 119 -10z m-542 -6 c1 -26 34 -94 59 -120 13 -14 18 -28 14 -40
-10 -26 -23 -33 -70 -33 -54 0 -96 34 -117 97 -23 68 -21 82 17 98 47 21 97
19 97 -2z m375 3 c41 -17 45 -41 19 -106 -13 -31 -21 -39 -33 -34 -38 16 -82
21 -119 14 -78 -14 -95 46 -30 110 25 25 37 30 79 30 27 0 65 -7 84 -14z m-28
-171 c29 -20 52 -64 59 -118 6 -39 4 -44 -20 -55 -15 -6 -45 -15 -66 -18 -37
-6 -40 -5 -40 17 -1 31 -32 100 -53 118 -10 7 -17 26 -17 42 0 22 5 29 28 32
38 7 82 -1 109 -18z m-407 -41 c24 -12 47 -15 90 -11 44 5 61 3 70 -8 28 -34
-28 -120 -85 -131 -20 -3 -56 1 -89 10 -47 14 -56 20 -56 39 0 21 28 117 34
117 2 0 18 -7 36 -16z m306 -111 c8 -40 -30 -110 -77 -143 -29 -22 -31 -22
-52 -4 -34 29 -66 68 -67 81 0 6 9 15 20 18 21 7 70 81 70 107 0 8 10 20 23
26 19 9 26 6 49 -21 16 -17 31 -46 34 -64z"/>
<path d="M5018 9620 c-46 -14 -96 -49 -117 -83 -10 -18 -38 -78 -61 -135 -37
-92 -40 -107 -30 -136 6 -19 18 -40 28 -49 28 -25 311 -137 318 -125 10 15 0
20 -154 83 -126 51 -146 62 -159 90 -13 28 -13 35 2 71 l17 39 18 -40 c30 -68
75 -100 230 -166 l145 -61 135 -2 c131 -2 138 -3 229 -39 99 -39 130 -41 177
-11 70 47 50 166 -34 200 -132 54 -166 76 -246 157 -77 79 -87 86 -196 132
-208 87 -238 94 -302 75z m241 -82 c155 -62 157 -63 226 -136 79 -83 131 -119
228 -157 37 -15 74 -37 82 -48 22 -32 19 -80 -7 -105 -38 -35 -67 -36 -145 -3
-100 41 -162 52 -278 49 l-100 -3 -135 57 c-149 64 -175 79 -207 128 -45 65
-39 147 14 211 31 37 95 68 137 69 16 0 100 -28 185 -62z"/>
<path d="M4985 9451 c-3 -5 -2 -12 2 -14 8 -5 455 -189 485 -200 21 -8 32 7
15 20 -13 11 -477 203 -489 203 -4 0 -9 -4 -13 -9z"/>
<path d="M7600 9511 l-34 -28 18 -41 c19 -42 16 -83 -7 -111 -6 -7 -43 -37
-82 -66 -38 -28 -110 -96 -160 -150 -98 -107 -155 -162 -285 -277 -88 -77
-121 -121 -104 -138 15 -15 78 20 219 119 72 50 177 116 235 146 106 54 171
97 256 170 58 49 116 55 157 17 28 -26 45 -22 84 20 l22 23 -135 173 c-74 94
-139 172 -143 172 -3 0 -22 -13 -41 -29z m150 -147 c143 -183 135 -170 112
-183 -14 -8 -29 -5 -60 10 -61 30 -109 19 -175 -40 -79 -71 -114 -94 -214
-145 -51 -25 -164 -93 -250 -151 l-158 -106 100 93 c55 50 134 128 175 172
138 148 205 211 262 249 45 29 60 46 74 83 16 43 17 50 3 89 -14 38 -14 43 0
53 9 6 18 11 21 11 3 0 52 -61 110 -135z"/>
<path d="M314 9060 c-55 -22 -70 -95 -29 -135 48 -49 135 -17 135 50 0 47 -8
64 -41 80 -32 17 -36 17 -65 5z"/>
<path d="M6205 9015 c-32 -31 -32 -76 -2 -109 39 -44 110 -36 131 15 17 40 9
75 -22 99 -34 27 -77 25 -107 -5z"/>
<path d="M8713 8996 c-58 -34 -175 -122 -250 -191 -69 -62 -76 -85 -41 -122
l22 -24 -74 -69 c-61 -56 -79 -67 -99 -63 -21 5 -23 3 -18 -16 6 -23 -3 -27
-20 -10 -18 18 -35 1 -22 -22 13 -25 1 -41 -12 -16 -11 19 -39 23 -39 5 0 -6
7 -20 17 -30 9 -10 11 -18 6 -18 -6 0 -16 7 -23 15 -7 8 -19 15 -26 15 -18 0
-18 -24 1 -40 8 -7 12 -17 8 -22 -3 -6 -13 -1 -23 12 -24 32 -47 17 -25 -17
19 -28 13 -42 -10 -23 -21 18 -32 4 -16 -22 12 -19 11 -20 -12 -14 -26 6 -43
-5 -29 -18 4 -4 7 -15 7 -24 0 -10 7 -16 17 -14 9 1 19 -2 23 -8 12 -20 27
-10 21 15 -7 27 3 32 22 13 17 -17 28 0 15 21 -17 28 -3 34 23 10 28 -26 44
-7 18 22 -25 27 -9 37 19 11 13 -12 26 -22 30 -22 13 0 7 23 -10 42 -22 25 -8
36 17 13 14 -13 24 -15 31 -8 7 7 5 14 -6 23 -8 7 -15 19 -15 28 0 13 3 12 20
-3 25 -22 39 -12 21 16 -14 24 -7 39 11 21 19 -19 31 -14 24 12 -5 20 6 34 70
91 l75 68 23 -22 c45 -42 67 -31 194 97 179 178 208 237 147 290 -33 28 -60
28 -112 -2z m98 -27 c28 -28 19 -49 -62 -146 -63 -75 -186 -193 -211 -202 -12
-4 -108 88 -108 105 0 30 303 263 343 264 9 0 26 -9 38 -21z"/>
<path d="M7985 8965 c-65 -64 11 -163 100 -129 23 9 47 61 39 87 -20 67 -93
89 -139 42z"/>
<path d="M8934 8676 c-113 -78 -257 -195 -342 -279 -60 -58 -73 -76 -69 -96 4
-18 -3 -30 -24 -48 -16 -14 -29 -31 -29 -39 0 -16 78 -104 92 -104 5 0 24 11
41 24 22 17 40 23 58 19 22 -4 40 7 105 65 143 126 351 351 367 395 14 38 -52
117 -97 117 -12 0 -58 -25 -102 -54z m151 -11 c24 -33 25 -38 12 -58 -52 -80
-356 -387 -412 -417 -22 -12 -27 -8 -79 46 -30 33 -55 64 -56 70 -1 41 438
394 489 394 10 0 31 -16 46 -35z"/>
<path d="M8904 8604 c-199 -142 -363 -294 -318 -294 3 0 46 36 95 79 49 44
141 118 205 166 63 47 112 90 109 96 -9 13 -5 15 -91 -47z"/>
<path d="M3065 8678 c-43 -15 -65 -37 -65 -66 0 -42 49 -271 86 -401 47 -164
67 -209 99 -221 17 -6 27 -20 32 -40 9 -45 31 -53 94 -31 l54 18 0 51 c0 27 3
54 8 58 28 29 -49 278 -167 539 -49 107 -67 119 -141 93z m115 -114 c74 -150
185 -470 171 -492 -9 -14 -146 -56 -163 -50 -20 8 -92 245 -128 418 -38 185
-38 187 3 205 57 26 68 18 117 -81z"/>
<path d="M3054 8523 c30 -167 105 -445 127 -467 23 -25 20 13 -9 107 -32 102
-74 274 -87 355 -4 28 -12 42 -22 42 -12 0 -14 -8 -9 -37z"/>
<path d="M6179 8660 c-41 -21 -86 -71 -101 -109 -28 -75 -1 -182 60 -233 29
-24 29 -25 20 -94 -5 -38 -12 -72 -16 -75 -4 -3 -113 9 -242 27 -129 18 -250
33 -268 33 -67 2 -142 -61 -142 -117 0 -25 -14 -22 334 -68 202 -27 290 -43
294 -52 4 -11 -45 -400 -75 -594 l-6 -38 40 0 c49 0 102 33 123 76 9 17 31
143 50 288 l34 257 51 -6 c95 -12 98 -14 130 -67 42 -73 97 -101 186 -96 52 3
75 9 106 31 103 71 120 215 37 307 -45 49 -90 70 -152 70 -66 0 -93 -11 -146
-60 l-44 -41 -68 11 c-38 6 -70 13 -72 14 -5 5 10 133 17 142 3 5 24 19 46 30
22 12 54 40 70 64 27 37 30 50 30 115 0 65 -3 78 -30 117 -57 82 -180 113
-266 68z m181 -30 c123 -63 119 -248 -7 -311 -26 -13 -49 -24 -50 -24 -1 0
-27 -187 -58 -415 -31 -228 -61 -428 -67 -444 -12 -30 -61 -66 -90 -66 -13 0
-16 7 -12 33 3 17 31 227 64 466 l59 434 -43 42 c-63 61 -78 146 -38 220 41
77 157 108 242 65z m-460 -483 l235 -33 -2 -48 c-1 -26 -3 -49 -5 -50 -2 -2
-25 0 -53 3 -39 5 -49 10 -47 23 4 25 -16 31 -28 8 -15 -28 -39 -25 -50 6 -10
26 -30 25 -30 -2 0 -28 -41 -13 -53 19 -8 20 -27 14 -27 -9 0 -28 -41 -13 -53
19 -8 21 -27 14 -27 -10 0 -10 -6 -13 -16 -9 -9 3 -20 6 -25 6 -5 0 -9 9 -9
20 0 25 -20 26 -27 2 -6 -26 -53 -17 -53 9 0 24 -16 25 -29 1 -7 -14 -18 -17
-45 -14 -20 2 -36 9 -36 14 0 6 15 25 34 44 43 43 43 43 346 1z m813 9 c68
-28 114 -113 103 -190 -8 -48 -52 -108 -99 -132 -36 -19 -114 -21 -148 -4 -40
21 -88 72 -99 106 -10 30 -15 32 -68 38 -117 14 -114 12 -106 64 4 26 8 48 9
50 2 2 40 -2 85 -8 l83 -11 30 37 c17 20 44 42 61 50 40 17 108 18 149 0z"/>
<path d="M6236 8600 c-39 -12 -73 -46 -86 -87 -33 -99 65 -194 166 -161 114
38 111 216 -4 248 -42 11 -37 11 -76 0z m80 -35 c77 -32 78 -141 1 -179 -34
-16 -42 -17 -75 -4 -80 30 -93 128 -23 175 40 27 50 28 97 8z"/>
<path d="M6594 8114 c-22 -8 -40 -14 -41 -14 -1 0 -11 -15 -22 -34 -70 -113
40 -242 162 -188 150 66 56 290 -99 236z m86 -29 c66 -34 79 -103 31 -157 -24
-27 -36 -33 -71 -33 -82 0 -129 96 -79 159 36 45 73 55 119 31z"/>
<path d="M290 8595 c-61 -20 -290 -190 -290 -216 0 -15 27 1 123 73 67 50 140
99 162 109 76 35 167 20 235 -39 53 -45 80 -100 83 -167 l2 -53 165 -128 c173
-133 180 -139 180 -165 0 -29 -69 -109 -94 -109 -13 0 -86 49 -184 125 l-161
125 -62 -20 c-92 -31 -185 -9 -248 61 l-27 29 -79 -50 c-44 -27 -84 -56 -90
-64 -21 -33 7 -25 80 22 l78 50 43 -33 c24 -18 60 -39 81 -46 50 -17 144 -15
183 5 l32 15 160 -124 c175 -136 194 -144 245 -101 l29 24 38 -29 c36 -26 56
-30 56 -10 0 5 -18 21 -40 36 -37 26 -39 29 -25 48 20 29 19 70 -2 95 -10 11
-89 74 -175 141 l-158 122 0 47 c-1 160 -180 279 -340 227z"/>
<path d="M2539 8450 c-29 -17 -43 -66 -29 -100 19 -45 66 -63 115 -44 46 18
54 109 12 139 -24 17 -74 19 -98 5z"/>
<path d="M4933 8445 c-42 -30 -34 -121 12 -139 49 -19 96 -1 115 44 15 35 0
84 -31 100 -26 15 -72 12 -96 -5z"/>
<path d="M340 8439 c-61 -24 -84 -82 -56 -137 20 -38 44 -52 91 -52 50 0 95
44 95 94 0 65 -72 117 -130 95z m74 -40 c50 -39 24 -119 -39 -119 -96 0 -95
134 1 139 6 1 23 -8 38 -20z"/>
<path d="M1372 8377 c-49 -52 -13 -137 57 -137 68 0 104 78 60 134 -27 35 -86
36 -117 3z"/>
<path d="M9792 8244 c-223 -167 -214 -141 -83 -242 l79 -61 106 67 c71 44 106
73 106 85 0 15 -9 12 -57 -19 -32 -21 -80 -50 -106 -67 l-48 -29 -69 53 c-39
29 -70 57 -70 61 0 5 79 67 175 138 96 71 175 137 175 145 0 8 -3 15 -7 14 -5
0 -95 -66 -201 -145z"/>
<path d="M4040 8197 c-32 -16 -52 -59 -44 -92 8 -32 49 -65 81 -65 33 0 83 51
83 85 0 31 -49 85 -77 85 -10 0 -29 -6 -43 -13z"/>
<path d="M7071 8174 c-28 -36 -27 -79 4 -109 50 -51 135 -17 135 54 0 76 -94
112 -139 55z"/>
<path d="M1857 8078 c-24 -24 -48 -50 -53 -58 -5 -9 -37 -21 -72 -28 -99 -20
-112 -29 -112 -73 0 -21 9 -63 21 -93 19 -52 19 -57 4 -87 -9 -17 -19 -55 -22
-84 -5 -52 -5 -54 27 -70 18 -9 57 -19 86 -22 48 -5 57 -10 75 -39 30 -48 94
-97 119 -89 10 3 44 33 73 66 48 53 58 59 93 59 21 0 59 9 83 20 l44 20 -7 52
c-4 28 -15 67 -26 87 -17 35 -17 37 2 74 10 21 22 60 25 88 l6 49 -45 20 c-24
10 -64 21 -88 22 -37 3 -46 8 -68 40 -27 42 -83 88 -106 88 -9 0 -35 -19 -59
-42z m111 -31 c23 -23 42 -45 42 -49 0 -3 -18 -24 -40 -46 -23 -22 -43 -54
-46 -72 -13 -64 -74 -52 -104 21 -20 46 -5 93 46 144 25 25 49 45 53 45 4 0
26 -19 49 -43z m-185 -118 c3 -25 18 -56 36 -79 17 -22 31 -50 31 -63 0 -20
-6 -26 -36 -31 -75 -15 -132 23 -154 102 -19 69 -15 80 38 96 74 23 79 21 85
-25z m375 20 c23 -8 32 -16 32 -33 0 -21 -28 -116 -35 -116 -1 0 -20 7 -41 16
-27 11 -53 14 -86 10 -28 -4 -56 -2 -68 4 -19 10 -19 13 -5 48 37 88 90 106
203 71z m-22 -180 c23 -21 54 -102 54 -140 0 -11 -14 -20 -42 -28 -67 -18 -93
-18 -90 -2 5 23 -26 96 -52 120 -26 25 -25 67 3 75 36 11 103 -2 127 -25z
m-411 -35 c26 -11 52 -13 89 -9 40 5 55 3 64 -8 18 -21 6 -61 -28 -97 -23 -25
-36 -30 -75 -30 -26 0 -65 5 -86 12 -33 9 -39 15 -39 39 0 25 27 109 35 109 1
0 19 -7 40 -16z m269 -46 c51 -68 40 -125 -36 -194 l-40 -36 -44 43 c-24 24
-44 47 -44 52 0 4 13 19 29 32 15 14 38 47 50 74 19 44 31 58 53 60 4 1 18
-14 32 -31z"/>
<path d="M9104 8070 c-26 -10 -54 -48 -54 -72 0 -30 21 -65 47 -77 36 -17 59
-13 89 13 69 59 1 171 -82 136z"/>
<path d="M4529 7911 c-47 -48 -66 -60 -101 -66 -24 -4 -63 -15 -86 -26 l-44
-19 7 -42 c4 -24 16 -63 26 -87 19 -44 19 -45 0 -86 -10 -22 -22 -62 -26 -87
l-7 -47 38 -17 c22 -9 62 -19 90 -21 42 -4 54 -10 65 -30 16 -30 97 -103 114
-103 17 0 98 73 114 103 11 20 22 26 65 29 28 3 68 12 89 21 38 17 39 17 32
59 -4 24 -16 65 -26 92 -11 29 -15 54 -10 60 11 14 41 114 41 138 0 22 -39 42
-113 58 -51 10 -65 19 -115 71 -32 32 -67 59 -77 59 -10 0 -45 -27 -76 -59z
m140 -27 l32 -36 -35 -32 c-19 -18 -42 -51 -52 -75 -14 -34 -50 -72 -58 -59
-1 2 -14 18 -29 36 -47 58 -33 128 38 191 41 36 53 33 104 -25z m-199 -98 c0
-22 12 -52 35 -87 20 -29 35 -59 33 -67 -4 -21 -52 -35 -94 -28 -55 11 -88 55
-108 148 -7 30 11 45 69 59 59 14 65 12 65 -25z m378 8 c31 -13 33 -16 27 -46
-4 -18 -13 -48 -21 -65 l-13 -32 -38 15 c-27 12 -53 14 -94 10 -78 -9 -91 6
-57 72 36 71 101 86 196 46z m-47 -160 c32 -16 61 -70 73 -132 5 -30 3 -34
-27 -47 -17 -7 -48 -15 -67 -17 -34 -3 -35 -2 -42 41 -4 26 -20 61 -38 82 -16
21 -30 45 -30 53 0 36 78 48 131 20z m-407 -43 c10 -15 72 -22 115 -12 76 17
89 -43 23 -111 -22 -24 -34 -28 -79 -28 -30 0 -70 7 -89 15 -33 14 -35 17 -29
47 16 75 43 115 59 89z m291 -58 c34 -51 33 -99 -4 -149 -15 -22 -40 -48 -55
-57 -26 -17 -26 -17 -71 27 -50 51 -54 62 -25 71 24 8 53 48 69 97 11 32 22
42 53 47 4 0 19 -16 33 -36z"/>
<path d="M7632 7924 c-24 -20 -49 -49 -58 -65 -12 -25 -21 -29 -54 -29 -36 0
-114 -23 -133 -40 -10 -8 9 -103 28 -144 14 -30 14 -36 -4 -77 -10 -24 -21
-63 -25 -87 -6 -43 -6 -43 36 -61 24 -11 62 -22 86 -26 35 -6 54 -18 101 -66
32 -33 66 -59 77 -59 20 0 85 57 112 98 8 12 24 22 36 22 33 0 129 30 144 45
11 10 12 23 3 66 -6 30 -18 67 -26 82 -12 24 -12 32 5 70 10 23 21 63 25 89
l7 47 -38 16 c-22 9 -62 19 -91 22 -41 5 -54 10 -64 31 -16 29 -97 102 -114
102 -6 0 -30 -16 -53 -36z m139 -75 c8 -16 4 -24 -22 -46 -18 -15 -41 -48 -52
-73 -32 -72 -54 -78 -92 -23 -45 67 -26 136 53 199 l27 22 38 -30 c20 -16 42
-39 48 -49z m-221 -74 c0 -30 31 -95 54 -114 24 -20 20 -58 -6 -65 -97 -25
-169 32 -180 144 -3 32 0 36 32 47 19 6 50 12 68 12 28 1 32 -2 32 -24z m361
14 c50 -17 53 -22 39 -78 -16 -66 -26 -74 -77 -56 -30 10 -55 12 -87 6 -37 -7
-48 -5 -61 9 -14 15 -14 21 0 53 29 70 98 95 186 66z m-19 -172 c22 -14 54
-78 62 -129 l7 -37 -52 -16 c-79 -23 -89 -21 -89 19 0 22 -12 52 -34 85 -37
55 -38 87 -2 94 29 7 85 -2 108 -16z m-322 -54 c41 5 62 2 76 -7 18 -14 18
-15 -4 -61 -36 -74 -117 -93 -204 -49 -24 12 -27 19 -21 47 3 17 12 47 19 65
l13 33 33 -17 c24 -12 46 -15 88 -11z m220 -108 c0 -45 -18 -80 -63 -123 -40
-39 -54 -36 -107 24 l-32 37 32 25 c18 14 43 49 56 78 12 28 29 54 36 57 7 3
28 -10 46 -29 24 -25 32 -43 32 -69z"/>
<path d="M215 7725 c-51 -50 -17 -135 54 -135 49 0 81 32 81 81 0 72 -84 106
-135 54z"/>
<path d="M8637 7695 c-29 -30 -39 -69 -26 -103 5 -13 69 -87 141 -164 117
-124 136 -139 159 -134 46 9 52 -13 16 -57 -23 -30 -32 -51 -32 -80 0 -49 17
-65 209 -194 110 -75 144 -93 173 -93 40 0 59 17 181 158 55 64 62 77 62 115
0 41 -6 50 -129 189 -137 154 -168 176 -219 157 -15 -6 -41 -24 -59 -41 -33
-32 -53 -31 -53 5 0 12 -4 27 -8 33 -4 6 -74 61 -157 122 -134 100 -155 112
-191 112 -31 0 -48 -6 -67 -25z m246 -115 c81 -61 147 -113 147 -116 0 -11
-122 -145 -130 -142 -22 10 -260 268 -265 289 -9 37 27 79 68 79 25 0 64 -24
180 -110z m347 -120 c12 0 253 -277 262 -301 11 -28 -2 -50 -85 -144 -91 -103
-104 -115 -134 -115 -29 0 -327 201 -344 232 -15 28 -5 58 29 91 28 27 30 27
46 11 11 -10 14 -23 10 -33 -4 -9 -8 -32 -8 -51 -1 -33 4 -38 119 -117 74 -52
130 -83 146 -83 19 0 41 17 85 67 67 76 94 113 94 130 0 7 -46 64 -101 128
-86 97 -106 115 -130 115 -17 0 -40 -7 -53 -15 -21 -14 -24 -13 -40 3 -15 18
-15 21 5 46 24 30 56 47 77 40 8 -2 17 -4 22 -4z m-149 -85 c42 -38 76 -44
112 -20 20 13 25 13 45 -1 27 -19 28 -38 1 -75 -37 -52 -55 -55 -102 -15 -112
93 -130 112 -124 129 9 25 25 21 68 -18z m34 -195 c-18 -19 -37 -43 -42 -54
-10 -18 -11 -18 -32 3 -21 21 -22 24 -6 48 24 35 13 64 -40 108 -44 35 -45 38
-29 56 16 18 20 15 99 -54 l82 -72 -32 -35z m236 48 c31 -35 59 -69 63 -76 8
-14 -116 -164 -142 -170 -8 -2 -52 22 -98 53 l-85 57 19 32 c10 17 44 48 75
69 31 20 67 51 79 67 12 17 25 30 28 30 4 0 31 -28 61 -62z"/>
<path d="M1060 7616 c-29 -9 -48 -33 -137 -176 -100 -160 -114 -192 -93 -205
7 -4 7 -13 0 -26 -11 -19 -11 -19 -50 1 -51 26 -93 25 -125 -2 -29 -26 -155
-347 -155 -397 0 -15 9 -40 21 -55 25 -32 247 -146 285 -146 50 0 58 9 237
274 59 86 63 133 16 176 -16 16 -39 32 -50 35 -27 9 -20 38 11 45 26 6 54 62
146 293 31 78 34 92 24 122 -6 18 -17 38 -25 45 -25 21 -70 28 -105 16z m73
-36 c14 -11 29 -29 32 -40 4 -12 -20 -82 -66 -192 -39 -95 -74 -175 -76 -178
-2 -2 -42 16 -89 40 -61 33 -82 49 -78 60 8 21 164 271 183 294 14 16 44 34
62 35 4 1 18 -8 32 -19z m-243 -380 c13 -8 7 -24 -33 -105 -26 -53 -51 -95
-55 -93 -4 3 -31 15 -59 28 -29 13 -53 29 -53 36 0 22 26 34 59 28 39 -8 55 5
87 68 26 50 30 53 54 38z m-120 -15 c34 -17 34 -19 20 -46 -9 -15 -18 -18 -48
-13 -24 3 -43 1 -53 -8 -15 -11 -85 -185 -108 -266 -13 -44 6 -64 107 -117 99
-51 124 -55 153 -21 43 50 159 230 159 248 0 10 -12 30 -27 44 -23 21 -25 27
-15 49 l12 26 40 -21 c38 -20 58 -54 51 -89 -4 -19 -199 -303 -219 -318 -27
-22 -55 -15 -168 43 -129 67 -144 79 -144 112 0 32 117 351 138 375 19 21 63
22 102 2z m200 -31 c0 -2 -11 -27 -25 -54 -14 -27 -25 -56 -25 -64 0 -8 11
-28 25 -44 30 -36 31 -44 6 -66 -17 -15 -25 -16 -54 -7 -19 7 -43 21 -53 32
-19 21 -18 23 35 124 48 91 57 103 73 94 10 -5 18 -12 18 -15z m-246 -144 c15
-5 49 -32 78 -60 28 -27 55 -50 59 -50 4 0 19 -4 34 -10 l26 -10 -51 -75 c-28
-42 -59 -79 -68 -82 -15 -6 -173 70 -192 93 -12 14 58 204 76 204 7 0 24 -4
38 -10z"/>
<path d="M2672 7605 c-43 -36 -43 -76 -2 -117 26 -25 36 -29 63 -24 46 9 69
37 69 81 0 44 -23 72 -68 81 -24 4 -37 0 -62 -21z"/>
<path d="M5424 7442 c-29 -4 -52 -31 -60 -70 -5 -26 -1 -36 24 -62 17 -16 40
-30 51 -30 74 0 115 77 71 132 -20 26 -48 36 -86 30z"/>
<path d="M2973 7375 c-46 -20 -68 -68 -54 -117 7 -21 22 -44 34 -52 43 -28
349 -147 370 -144 14 2 25 16 35 46 7 23 18 42 24 42 5 0 88 -25 184 -56 169
-54 175 -57 188 -89 13 -30 22 -36 85 -55 39 -11 75 -18 81 -15 7 4 40 101 40
117 0 3 -34 15 -75 28 -73 23 -75 23 -107 6 -33 -18 -33 -18 -198 34 -215 68
-201 60 -183 111 13 39 13 44 -4 59 -11 11 -90 34 -200 59 -100 22 -183 41
-185 41 -2 -1 -17 -7 -35 -15z m212 -55 c94 -22 175 -42 181 -44 14 -6 -34
-176 -52 -183 -17 -6 -334 127 -355 151 -39 41 -9 108 51 115 3 1 82 -17 175
-39z"/>
<path d="M2320 7348 c0 -7 39 -44 86 -83 96 -78 109 -95 99 -133 -7 -30 -711
-744 -757 -768 -46 -24 -71 -9 -153 93 -53 65 -81 91 -88 84 -7 -7 14 -40 67
-105 82 -102 112 -121 171 -104 40 11 771 740 785 783 18 55 0 84 -99 168 -92
77 -111 88 -111 65z"/>
<path d="M6563 7292 c-30 -5 -63 -48 -63 -82 0 -16 11 -38 26 -54 32 -31 71
-34 107 -6 68 54 18 156 -70 142z"/>
<path d="M6040 7114 c-27 -25 -52 -54 -55 -64 -4 -13 -19 -19 -58 -22 -29 -3
-69 -12 -91 -21 -39 -17 -39 -17 -32 -63 3 -25 14 -65 24 -87 18 -41 18 -43 0
-84 -10 -23 -21 -62 -24 -87 l-7 -46 44 -19 c24 -11 65 -22 91 -26 40 -6 51
-13 68 -40 23 -38 81 -85 105 -85 19 0 102 75 110 100 4 12 20 19 56 24 28 4
69 14 90 23 36 14 39 18 39 54 0 21 -9 62 -20 92 -20 53 -20 54 -1 98 11 24
21 62 23 84 3 38 1 41 -36 59 -22 11 -61 21 -88 24 -41 4 -51 9 -69 38 -22 35
-89 94 -108 94 -7 0 -34 -21 -61 -46z m129 -107 c-23 -15 -41 -40 -54 -74 -25
-66 -50 -75 -87 -32 -51 60 -45 112 24 183 l49 51 51 -53 50 -53 -33 -22z
m-203 -15 c-10 -17 15 -83 45 -116 20 -24 27 -40 22 -52 -10 -27 -23 -34 -69
-34 -67 0 -112 50 -129 143 -7 35 -5 38 26 52 37 15 114 20 105 7z m374 -6
c32 -12 35 -16 32 -47 -2 -19 -10 -49 -18 -68 -11 -26 -18 -32 -31 -26 -49 20
-84 25 -121 17 -40 -9 -72 3 -72 27 0 21 31 75 54 93 25 21 104 23 156 4z
m-42 -166 c37 -23 71 -88 72 -137 0 -30 -3 -33 -52 -48 -70 -20 -78 -19 -78
10 0 35 -23 86 -49 109 -29 26 -28 73 2 79 48 9 73 6 105 -13z m-309 -57 c76
8 97 -6 77 -54 -24 -58 -61 -84 -114 -83 -26 0 -64 6 -86 13 -38 13 -38 14
-32 53 4 22 13 53 21 68 15 28 15 28 46 13 23 -11 47 -14 88 -10z m208 -67
c28 -54 -6 -139 -73 -183 -25 -16 -26 -15 -70 28 -50 49 -54 61 -20 77 14 6
35 34 51 67 15 30 35 60 44 65 19 10 46 -10 68 -54z"/>
<path d="M5027 7113 c-3 -5 -12 -25 -20 -45 l-16 -38 45 -54 c24 -30 44 -61
44 -69 0 -19 -54 -65 -86 -73 -14 -4 -45 -4 -70 -1 -31 3 -44 1 -44 -8 0 -17
23 -25 76 -25 52 0 77 11 121 53 l32 30 23 -29 c48 -61 65 -74 127 -98 l64
-26 39 40 c37 37 87 60 131 60 28 0 19 17 -26 48 -23 17 -51 47 -63 68 -19 37
-29 43 -184 106 -166 68 -185 74 -193 61z m227 -106 c88 -36 112 -50 124 -73
8 -16 26 -41 39 -56 25 -26 25 -26 4 -33 -12 -3 -42 -22 -67 -41 l-46 -35 -52
21 c-44 18 -63 36 -138 130 -49 60 -88 114 -88 120 0 6 5 20 10 30 12 22 -15
30 214 -63z"/>
<path d="M7191 6973 c-206 -8 -385 -19 -397 -23 -36 -14 -56 -62 -47 -114 l8
-45 357 -240 356 -240 93 -21 c51 -11 97 -20 102 -20 30 0 -32 55 -316 281
-174 139 -314 256 -310 259 5 4 186 24 403 44 217 21 401 39 408 41 28 10 7
24 -84 59 -70 26 -110 36 -148 35 -28 -1 -219 -8 -425 -16z m520 -30 c27 -10
49 -20 49 -23 0 -3 -219 -27 -487 -53 -516 -50 -503 -50 -503 1 0 41 33 62
103 63 34 0 199 6 367 13 426 18 416 18 471 -1z m-646 -206 c50 -40 186 -148
303 -241 117 -93 211 -171 209 -173 -3 -2 -23 -1 -46 3 -31 5 -120 59 -374
231 -182 123 -333 228 -335 233 -2 5 23 11 55 13 32 2 67 4 78 5 11 1 59 -30
110 -71z"/>
<path d="M4580 6937 c-54 -28 -61 -99 -13 -137 36 -28 70 -25 104 9 35 35 37
71 7 105 -28 31 -65 40 -98 23z"/>
<path d="M9774 6930 c-29 -11 -54 -49 -54 -78 0 -32 52 -82 85 -82 16 0 38 12
57 30 25 26 29 36 24 63 -11 55 -64 87 -112 67z"/>
<path d="M1365 6908 c-46 -25 -60 -82 -30 -125 30 -42 121 -34 139 12 17 46 4
91 -35 110 -33 18 -47 18 -74 3z"/>
<path d="M7540 6845 c-246 -26 -220 -22 -220 -35 0 -14 66 -12 314 13 148 15
221 26 224 35 5 17 -58 14 -318 -13z"/>
<path d="M5116 6714 c-36 -83 -105 -158 -190 -208 -117 -69 -167 -147 -167
-264 0 -66 20 -132 54 -174 18 -22 234 -108 272 -108 74 1 168 69 212 154 36
71 40 135 13 231 -27 98 -24 210 9 293 12 30 19 57 16 62 -4 6 -177 80 -188
80 -1 0 -15 -30 -31 -66z m120 0 c57 -23 65 -29 60 -48 -43 -148 -46 -215 -16
-321 24 -84 25 -127 4 -187 -29 -87 -126 -168 -201 -168 -16 0 -75 20 -133 43
-119 49 -141 72 -160 161 -13 64 -3 117 33 179 30 51 40 60 120 108 l60 36 83
-33 c46 -19 91 -34 100 -34 29 0 9 23 -38 41 -25 10 -62 25 -83 33 l-38 16 40
43 c22 24 52 69 67 100 14 31 29 57 31 57 3 0 34 -12 71 -26z"/>
<path d="M8205 6705 c-29 -28 -31 -54 -10 -94 27 -52 90 -57 129 -10 30 35 32
49 11 88 -25 49 -90 57 -130 16z"/>
<path d="M8735 6650 c-4 -6 -1 -19 7 -28 147 -174 279 -335 276 -337 -2 -1
-97 17 -213 41 -115 24 -218 44 -228 44 -55 0 18 -34 282 -129 l292 -106 64
-79 c62 -76 63 -80 45 -93 -27 -19 -27 -82 0 -115 43 -55 137 -64 173 -17 17
23 18 31 7 63 -12 39 -56 75 -100 85 -19 4 -50 33 -98 90 l-69 84 16 28 c9 16
21 29 28 29 7 0 56 -10 110 -21 67 -15 102 -28 111 -41 20 -28 66 -48 111 -48
31 0 44 6 61 27 13 17 20 37 17 50 -2 13 0 23 5 23 18 0 58 50 58 73 0 33 -35
76 -50 61 -8 -8 -7 -14 5 -24 28 -23 13 -80 -22 -80 -6 0 -29 11 -49 25 -60
41 -154 26 -154 -25 0 -10 -3 -21 -8 -24 -4 -2 -52 5 -106 17 l-99 21 -216
196 c-264 237 -247 224 -256 210z"/>
<path d="M7270 6640 c0 -10 391 -327 415 -336 9 -4 15 0 15 8 0 15 -401 338
-419 338 -6 0 -11 -4 -11 -10z"/>
<path d="M3355 6535 c-51 -50 -15 -135 58 -135 44 0 77 34 77 81 0 72 -84 106
-135 54z"/>
<path d="M339 6451 c-35 -36 -37 -70 -5 -107 47 -56 146 -20 146 52 0 34 -51
84 -85 84 -16 0 -38 -12 -56 -29z"/>
<path d="M2663 6300 c-24 -11 -43 -25 -42 -32 0 -7 13 -42 27 -78 23 -55 32
-66 58 -74 30 -9 35 -18 95 -184 35 -96 65 -178 67 -183 2 -4 -15 -13 -38 -20
-70 -21 -70 -29 20 -221 45 -97 91 -183 106 -195 50 -45 144 -13 158 55 7 32
-87 379 -109 401 -11 12 -21 12 -60 1 -25 -7 -47 -11 -49 -9 -1 2 -32 83 -67
180 -57 153 -64 179 -52 195 19 26 16 64 -8 128 -25 64 -36 67 -106 36z m336
-582 c5 -18 29 -102 52 -186 l42 -153 -20 -27 c-25 -33 -71 -40 -100 -15 -24
21 -167 326 -161 344 4 11 138 66 165 68 6 1 16 -14 22 -31z"/>
<path d="M4098 6194 c-169 -115 -190 -132 -183 -154 3 -10 -1 -23 -9 -29 -12
-10 -22 -4 -54 31 -35 37 -46 43 -82 43 -40 0 -46 -5 -186 -147 -142 -143
-144 -146 -144 -190 0 -41 7 -53 87 -152 88 -111 128 -141 173 -129 28 7 305
177 337 205 42 39 38 105 -10 156 -25 27 -13 46 32 46 24 1 57 27 169 133 85
81 142 143 146 159 9 36 -10 89 -39 108 -51 34 -84 23 -237 -80z m231 40 c37
-48 30 -61 -116 -201 -76 -73 -142 -133 -147 -133 -4 0 -16 10 -26 23 -10 12
-36 45 -59 74 l-42 52 153 105 c170 117 200 127 237 80z m-503 -208 c39 -39
42 -51 14 -66 -16 -9 -26 -7 -47 9 -14 12 -33 21 -41 21 -8 0 -64 -48 -123
-107 -136 -133 -136 -135 -45 -247 35 -44 72 -84 81 -89 22 -12 43 -2 181 84
118 73 130 88 111 139 -10 25 -9 33 6 47 17 17 19 17 43 -10 32 -38 40 -72 21
-100 -8 -12 -87 -66 -175 -120 -129 -79 -165 -97 -185 -92 -16 5 -56 44 -107
107 -86 105 -101 132 -91 160 9 25 251 279 275 288 35 15 47 11 82 -24z m128
-44 c15 -18 12 -22 -71 -87 -80 -64 -87 -68 -97 -50 -6 11 -25 34 -43 51 -31
31 -32 32 -13 49 18 16 21 16 53 -4 40 -25 61 -20 117 28 19 17 35 31 36 31 0
0 8 -8 18 -18z m56 -76 c0 -7 -18 -25 -40 -42 -45 -33 -58 -65 -42 -106 9 -25
7 -30 -15 -48 -22 -17 -28 -18 -46 -5 -23 16 -57 64 -57 82 0 6 39 43 88 81
64 52 90 67 100 60 6 -6 12 -16 12 -22z m-282 -39 c18 -19 37 -50 43 -70 5
-20 26 -57 45 -83 19 -25 34 -47 32 -48 -69 -47 -159 -95 -169 -90 -15 6 -93
99 -123 146 l-17 27 72 75 c39 42 75 76 78 76 4 0 22 -15 39 -33z"/>
<path d="M5814 6186 c-54 -46 -30 -127 43 -142 27 -5 37 -1 63 24 39 39 39 74
1 113 -36 35 -70 37 -107 5z"/>
<path d="M1770 6172 c-41 -41 -41 -81 1 -116 38 -32 70 -33 104 -3 21 17 27
32 27 61 0 45 -23 73 -69 82 -27 5 -37 1 -63 -24z"/>
<path d="M214 6089 c-21 -16 -49 -46 -63 -65 -19 -26 -31 -34 -56 -34 -46 0
-95 -19 -95 -37 0 -10 5 -13 18 -8 9 4 35 9 58 12 l41 5 6 -39 c4 -22 20 -58
37 -81 48 -67 39 -92 -36 -92 -48 0 -88 23 -107 62 l-17 33 1 -70 c0 -56 2
-66 11 -48 10 20 12 20 47 6 25 -11 53 -14 92 -9 71 7 87 -6 70 -57 -24 -73
-96 -103 -178 -74 -40 14 -43 13 -43 -3 0 -14 13 -21 50 -29 28 -6 60 -11 70
-11 11 0 20 -4 20 -10 0 -13 57 -76 90 -100 l28 -20 41 30 c22 17 51 45 63 64
19 28 30 35 68 39 25 3 66 13 89 23 l43 17 -6 50 c-3 28 -14 67 -24 89 -19 37
-19 39 0 76 10 22 21 62 25 90 l6 51 -39 16 c-22 9 -63 19 -91 22 -39 4 -54
10 -58 24 -6 19 -101 109 -115 109 -4 0 -25 -14 -46 -31z m85 -35 c55 -46 56
-59 12 -103 -21 -21 -42 -53 -46 -70 -6 -29 -30 -51 -54 -51 -15 0 -61 83 -61
109 0 12 5 32 11 44 16 31 81 97 95 97 7 0 26 -12 43 -26z m191 -108 c32 -12
35 -17 34 -49 -2 -54 -23 -100 -43 -90 -9 4 -51 8 -93 9 -98 2 -113 12 -93 62
24 58 58 82 113 81 26 0 63 -6 82 -13z m-28 -168 c23 -12 56 -76 64 -125 5
-35 3 -40 -21 -51 -15 -7 -47 -15 -71 -19 -39 -5 -44 -4 -43 13 4 43 -3 65
-34 106 -39 52 -38 85 1 91 32 5 80 -2 104 -15z m-112 -124 c19 -37 20 -49 10
-78 -11 -35 -83 -116 -103 -116 -6 0 -30 21 -55 46 l-44 46 35 29 c19 16 43
49 53 73 20 47 50 71 71 54 7 -5 22 -29 33 -54z"/>
<path d="M2136 6094 c-37 -38 -34 -79 22 -278 43 -150 51 -170 75 -182 39 -21
33 -39 -18 -59 -47 -17 -75 -53 -75 -95 0 -34 166 -356 196 -379 38 -30 64
-27 205 24 131 49 169 76 169 122 0 39 -80 375 -95 399 -8 11 -28 27 -45 34
-27 11 -39 11 -81 -2 -55 -18 -67 -11 -49 31 10 25 3 44 -70 202 -44 96 -90
182 -101 192 -33 27 -101 23 -133 -9z m140 -52 c88 -185 141 -308 136 -314 -8
-8 -174 -70 -177 -66 -2 2 -26 84 -53 183 -44 154 -49 183 -39 204 29 61 102
57 133 -7z m144 -417 c24 -59 49 -80 83 -71 27 7 47 -10 47 -40 0 -28 -51 -64
-91 -64 -24 0 -29 9 -66 108 -39 104 -40 121 -7 122 7 0 22 -25 34 -55z m-60
-62 c19 -53 36 -100 38 -104 1 -3 -18 -12 -43 -19 -25 -7 -48 -17 -51 -21 -10
-16 -33 -9 -39 11 -5 15 2 28 24 49 35 33 37 44 17 92 -31 77 -31 78 14 88 3
0 21 -43 40 -96z m217 78 c15 -14 31 -64 58 -177 46 -195 50 -224 33 -247 -15
-20 -245 -107 -282 -107 -12 0 -30 8 -38 18 -29 33 -178 330 -178 354 0 31 36
66 77 74 26 5 32 3 38 -16 6 -18 1 -28 -24 -47 -18 -14 -31 -34 -31 -46 0 -12
31 -80 69 -152 l69 -130 43 1 c55 1 206 59 219 84 7 14 2 56 -21 157 -26 110
-37 143 -57 161 -17 16 -32 22 -48 18 -22 -6 -54 15 -54 35 0 12 58 38 86 39
11 0 30 -9 41 -19z m10 -273 c11 -51 19 -98 16 -104 -2 -7 -48 -28 -101 -47
-72 -26 -100 -32 -110 -24 -8 6 -33 50 -58 98 l-43 87 42 21 c28 13 63 21 98
21 34 0 67 7 89 19 19 10 37 19 40 20 4 0 15 -41 27 -91z"/>
<path d="M6257 6086 c-97 -36 -157 -123 -157 -228 0 -107 130 -416 188 -447
10 -5 44 -72 77 -148 32 -76 62 -142 65 -146 6 -7 285 91 319 112 11 7 5 35
-32 147 -38 115 -46 155 -49 232 -5 102 3 113 46 67 28 -30 36 -31 36 -6 0 26
-46 61 -78 61 -44 0 -13 15 158 79 176 66 210 89 210 141 0 25 5 31 41 41 37
12 59 32 47 45 -3 3 -29 -4 -57 -16 l-52 -20 -26 20 c-16 12 -41 20 -65 20
-31 0 -159 -43 -338 -114 -11 -5 -19 3 -28 27 -15 42 -72 100 -121 123 -47 23
-136 28 -184 10z m83 -61 c20 -46 48 -64 36 -22 -18 66 -18 67 -2 67 10 0 23
-15 32 -35 16 -38 34 -46 34 -15 0 11 4 20 9 20 10 0 81 -76 81 -88 0 -6 -376
-152 -392 -152 -11 0 -15 64 -6 106 10 47 23 56 33 24 3 -11 13 -20 22 -20 10
0 13 5 8 18 -13 34 -17 80 -7 86 6 4 20 -14 32 -41 14 -32 24 -43 31 -36 7 7
6 22 -6 49 -16 39 -14 64 5 64 6 0 13 -8 17 -17 24 -70 34 -86 45 -75 8 8 7
22 -5 54 -21 54 -21 58 -2 58 9 0 24 -20 35 -45z m651 -43 c11 -14 19 -35 17
-46 -4 -27 -35 -42 -236 -118 -139 -52 -162 -64 -160 -80 3 -17 -25 -30 -191
-93 -107 -41 -197 -72 -201 -70 -13 8 -73 185 -66 193 4 3 93 39 197 78 150
57 191 69 196 58 3 -8 11 -14 18 -14 7 0 79 25 161 56 217 82 227 84 265 36z
m-356 -315 c4 -13 5 -46 3 -73 l-3 -49 -155 -58 c-110 -42 -159 -56 -170 -50
-23 15 -82 95 -75 102 7 6 374 149 387 150 4 1 10 -9 13 -22z m48 -281 c21
-65 36 -124 34 -131 -4 -10 -244 -105 -264 -105 -8 0 -99 208 -105 239 -2 10
39 30 132 67 74 29 142 51 149 51 10 -1 29 -45 54 -121z"/>
<path d="M7931 6000 c-33 -55 -38 -182 -10 -257 5 -14 3 -38 -6 -64 -8 -23
-15 -50 -15 -61 0 -11 -21 -39 -48 -63 -128 -116 -147 -328 -41 -481 90 -132
247 -148 351 -36 65 69 83 125 83 252 0 86 -4 113 -21 151 -26 55 -86 124
-126 145 -20 10 -28 22 -28 40 0 14 -5 35 -12 47 -7 14 -12 69 -13 147 0 107
-3 131 -21 165 -28 54 -65 60 -93 15z m70 -27 c10 -20 14 -67 14 -158 0 -83 5
-138 13 -152 23 -41 16 -49 -43 -50 -61 -2 -62 0 -41 62 12 35 12 49 -1 105
-22 94 -4 220 30 220 8 0 20 -12 28 -27z m40 -393 c153 -43 232 -287 146 -457
-91 -178 -284 -172 -377 11 -32 64 -35 76 -35 160 0 79 4 98 27 146 33 67 82
117 134 135 47 17 59 18 105 5z"/>
<path d="M7971 5341 c-152 -135 -176 -161 -149 -161 14 1 30 13 139 110 81 72
81 71 -8 -52 -103 -143 -85 -145 80 -6 67 55 126 105 132 110 5 5 5 12 -1 18
-8 8 -33 -7 -83 -50 -40 -33 -75 -60 -78 -60 -4 0 99 151 124 181 14 17 18 49
6 48 -5 0 -77 -62 -162 -138z"/>
<path d="M1269 5903 c-62 -94 -64 -98 -64 -162 0 -36 4 -78 9 -93 8 -27 7 -28
-25 -28 -57 0 -94 -32 -173 -151 -69 -104 -75 -110 -81 -86 -4 15 -22 40 -41
56 -69 61 -147 48 -208 -36 -67 -90 -71 -147 -13 -209 23 -26 43 -37 73 -41
78 -10 99 8 243 222 72 106 139 196 148 200 77 31 126 22 173 -32 29 -33 32
-41 27 -87 -4 -45 -18 -72 -132 -240 -144 -214 -155 -243 -113 -306 45 -67
123 -85 185 -45 37 25 103 133 103 169 0 71 -66 136 -137 136 l-33 0 80 121
c70 106 80 126 80 166 0 24 -5 53 -10 64 -10 17 -7 19 30 19 45 0 104 21 133
48 22 19 137 187 137 199 0 10 -301 213 -316 213 -6 0 -40 -44 -75 -97z m214
-24 c67 -45 126 -85 131 -90 13 -11 -34 -81 -50 -75 -19 7 -251 164 -258 174
-6 10 33 72 45 72 5 0 65 -37 132 -81z m-65 -106 c70 -47 129 -88 131 -90 9
-7 -25 -57 -55 -80 -108 -82 -266 -3 -266 133 0 43 36 124 55 124 5 0 66 -39
135 -87z m-535 -363 c36 -40 35 -83 -2 -141 -61 -96 -126 -116 -187 -55 -23
23 -34 43 -34 63 0 36 63 139 98 158 40 22 92 12 125 -25z m434 -305 c32 -32
35 -40 30 -75 -6 -49 -66 -133 -107 -150 -58 -24 -126 17 -137 82 -4 31 0 46
27 88 64 100 124 118 187 55z"/>
<path d="M7439 5911 c-35 -36 -37 -70 -5 -107 18 -21 32 -28 60 -28 76 0 110
90 52 140 -37 32 -71 30 -107 -5z"/>
<path d="M8812 5707 c-69 -74 32 -179 112 -116 35 27 36 86 3 117 -32 30 -87
29 -115 -1z"/>
<path d="M4610 5671 c-183 -56 -225 -246 -88 -396 113 -124 313 -166 441 -92
29 17 48 22 62 16 11 -4 39 -8 61 -8 25 -1 51 -9 67 -21 51 -40 154 -81 206
-82 156 -4 67 136 -120 186 -70 19 -89 26 -89 37 0 5 -18 21 -40 35 -26 17
-40 34 -40 48 0 31 -43 117 -79 158 -42 48 -114 93 -180 112 -57 17 -158 20
-201 7z m240 -53 c206 -96 257 -322 93 -410 -115 -62 -263 -37 -377 63 -140
123 -122 306 36 366 55 21 184 11 248 -19z m270 -322 c25 -22 55 -38 89 -45
84 -18 201 -88 201 -120 0 -38 -144 -4 -225 54 -37 26 -60 35 -90 35 -62 0
-67 8 -42 63 12 26 24 47 26 47 2 0 20 -15 41 -34z"/>
<path d="M4735 5619 c-3 -8 10 -67 28 -131 18 -64 30 -115 26 -112 -4 2 -31
47 -59 99 -83 153 -92 142 -45 -56 39 -161 52 -196 65 -183 6 6 1 40 -11 88
-11 43 -18 83 -16 89 2 6 29 -37 61 -96 96 -180 102 -160 30 99 -55 198 -68
231 -79 203z"/>
<path d="M9700 5463 c-61 -22 -79 -95 -35 -138 51 -52 135 -15 135 60 0 33
-27 75 -49 75 -5 0 -15 2 -23 4 -7 3 -20 2 -28 -1z"/>
<path d="M9338 5303 c-2 -5 -1 -116 2 -248 4 -132 5 -242 3 -244 -2 -2 -80 75
-174 172 -94 97 -175 177 -180 177 -25 0 6 -38 176 -215 l185 -192 0 -127 c0
-118 -1 -126 -20 -126 -61 0 -100 -49 -100 -126 0 -130 129 -230 212 -164 68
53 45 210 -37 264 -24 16 -25 20 -25 133 l0 116 78 -83 c74 -81 77 -85 79
-135 3 -118 91 -207 181 -183 109 29 89 232 -30 294 -37 19 -67 17 -107 -7
l-34 -20 -81 87 c-96 103 -94 96 -95 354 -1 185 -9 280 -22 280 -4 0 -9 -3
-11 -7z m360 -728 c39 -33 62 -83 62 -138 0 -58 -25 -90 -69 -90 -65 0 -122
70 -124 152 -3 89 67 130 131 76z m-318 -120 c41 -21 84 -113 76 -160 -14 -75
-78 -97 -136 -49 -42 36 -60 74 -60 127 0 82 52 117 120 82z"/>
<path d="M5843 5220 c-39 -16 -56 -77 -33 -119 16 -31 65 -46 100 -31 36 15
50 37 50 78 0 57 -62 95 -117 72z"/>
<path d="M3522 5193 c-21 -8 -44 -62 -36 -86 20 -67 93 -89 139 -42 66 65 -13
164 -103 128z"/>
<path d="M8760 5065 c-68 -29 -132 -58 -142 -64 -28 -18 -58 -72 -58 -106 0
-16 74 -208 165 -425 177 -424 187 -442 262 -456 70 -13 148 52 147 124 0 23
-26 101 -72 208 -40 95 -72 177 -72 183 0 7 29 25 65 41 36 16 65 34 65 40 0
15 -15 13 -73 -12 -62 -26 -87 -45 -87 -68 0 -10 32 -94 72 -186 84 -199 89
-231 40 -275 -18 -16 -44 -29 -58 -29 -38 0 -82 27 -100 61 -46 90 -324 774
-324 798 0 51 32 75 180 137 77 32 140 64 140 71 0 20 -16 15 -150 -42z"/>
<path d="M1889 5070 c-9 -5 -22 -23 -29 -40 -15 -35 0 -84 31 -100 29 -16 75
-12 100 9 33 27 33 95 0 122 -25 20 -75 25 -102 9z"/>
<path d="M3047 4946 c-9 -12 -19 -39 -22 -59 -12 -64 19 -108 213 -301 l181
-180 -52 -52 c-51 -51 -53 -52 -95 -44 -87 15 -175 -23 -216 -93 -35 -60 -41
-106 -22 -169 35 -120 168 -181 282 -129 86 39 130 118 120 215 l-6 62 50 49
50 50 52 -52 52 -52 0 -80 c1 -71 4 -83 31 -122 44 -63 104 -91 182 -87 115 7
193 88 193 201 0 72 -20 117 -72 162 -47 40 -109 56 -170 44 -42 -8 -44 -7
-98 47 l-55 54 194 194 194 194 5 55 c5 58 -17 117 -42 117 -8 0 -113 -99
-234 -220 -122 -121 -224 -220 -229 -220 -4 0 -107 99 -228 220 -121 121 -225
220 -231 220 -7 0 -19 -11 -27 -24z m368 -346 l331 -331 48 11 c115 26 217
-53 218 -170 0 -67 -26 -117 -81 -151 -88 -57 -200 -28 -251 64 -20 34 -22 49
-17 111 l6 71 -304 305 c-232 231 -306 312 -311 335 -5 31 9 85 23 85 4 0 157
-149 338 -330z m593 298 c16 -61 0 -85 -195 -280 l-188 -188 -35 35 -34 35 34
35 c25 26 39 33 57 29 23 -6 32 9 12 21 -7 5 -4 13 7 26 12 14 21 16 35 9 22
-12 36 5 20 24 -8 10 -6 17 8 30 12 11 21 14 26 7 12 -20 27 -12 22 11 -8 30
10 49 39 42 24 -6 34 9 13 21 -7 5 -4 14 7 26 13 14 20 16 30 8 19 -16 36 -2
24 20 -7 14 -5 23 9 35 13 11 21 14 26 7 12 -20 27 -12 22 11 -4 15 1 30 15
45 29 31 36 29 46 -9z m-531 -550 l33 -32 -60 -61 c-57 -57 -60 -63 -50 -89
25 -67 5 -142 -53 -193 -88 -77 -229 -46 -278 61 -23 52 -24 90 0 141 37 83
121 125 206 104 l47 -12 56 57 c31 31 59 56 61 56 3 0 20 -14 38 -32z"/>
<path d="M3781 4222 c-69 -35 -93 -111 -57 -180 46 -89 193 -79 232 15 28 66
-4 141 -72 169 -44 18 -62 18 -103 -4z m125 -43 c32 -30 40 -78 20 -117 -20
-39 -44 -52 -93 -52 -99 0 -134 128 -49 181 38 24 89 19 122 -12z"/>
<path d="M3171 4222 c-85 -46 -93 -160 -15 -221 33 -26 104 -28 144 -5 86 51
77 191 -15 230 -46 19 -73 18 -114 -4z m102 -23 c108 -55 48 -219 -69 -188
-42 12 -65 40 -71 88 -5 36 -2 44 30 76 37 37 70 44 110 24z"/>
<path d="M7404 4916 c-76 -33 -48 -156 36 -156 69 0 107 92 58 137 -32 29 -58
34 -94 19z"/>
<path d="M689 4851 c-47 -48 -66 -60 -101 -66 -24 -4 -63 -16 -87 -26 l-43
-19 7 -47 c4 -27 14 -66 24 -88 17 -38 17 -42 -1 -82 -10 -23 -21 -62 -24 -87
-7 -46 -7 -46 32 -63 22 -9 62 -18 91 -21 39 -3 54 -9 58 -22 7 -23 100 -110
118 -110 19 0 95 67 111 99 12 21 22 27 53 28 21 1 61 10 88 20 l50 19 -3 44
c-2 25 -13 65 -23 90 -20 44 -20 45 0 90 10 25 21 65 23 90 3 44 3 44 -42 61
-25 10 -64 18 -87 18 -36 1 -45 5 -57 30 -18 35 -93 101 -115 101 -8 0 -41
-27 -72 -59z m127 -16 l45 -45 -40 -38 c-23 -22 -44 -54 -51 -79 -17 -54 -46
-64 -78 -25 -33 40 -42 81 -25 122 14 34 79 110 95 110 5 0 29 -20 54 -45z
m-184 -124 c4 -26 20 -61 37 -81 33 -42 32 -75 -2 -84 -89 -24 -151 29 -172
145 -6 35 -6 36 37 48 24 8 48 15 53 17 28 8 40 -4 47 -45z m376 23 c35 -14
35 -19 10 -101 -12 -40 -24 -49 -45 -31 -10 8 -43 13 -91 13 -95 0 -106 12
-71 76 36 66 104 81 197 43z m-31 -175 c27 -26 39 -50 52 -111 9 -38 8 -40
-22 -53 -18 -7 -49 -15 -69 -19 -38 -7 -38 -7 -38 28 0 22 -12 52 -35 86 -55
82 -46 102 43 96 28 -3 52 -12 69 -27z m-317 -44 c30 4 51 2 63 -7 16 -12 17
-16 3 -48 -24 -59 -57 -82 -114 -82 -56 1 -122 24 -122 44 0 21 21 92 31 104
7 9 20 8 51 -3 27 -9 59 -12 88 -8z m196 -67 c8 -15 14 -40 14 -56 0 -33 -44
-99 -84 -126 l-27 -17 -45 44 c-24 24 -44 49 -44 54 0 5 11 15 24 21 16 7 35
34 53 71 15 33 35 62 43 64 19 4 48 -20 66 -55z"/>
<path d="M6275 4756 c-30 -30 -55 -59 -55 -64 0 -5 -22 -12 -48 -15 -26 -3
-67 -13 -91 -23 l-43 -17 6 -51 c4 -28 15 -68 25 -88 18 -37 18 -39 -1 -76
-10 -22 -21 -62 -25 -89 l-6 -51 57 -21 c31 -11 71 -21 89 -21 26 -1 37 -8 58
-39 15 -21 43 -51 62 -65 43 -33 54 -29 124 47 42 46 55 55 93 59 25 3 63 13
84 22 l39 16 -6 54 c-3 30 -13 68 -22 85 -15 30 -15 35 4 89 11 31 22 72 25
90 5 31 3 34 -37 52 -24 11 -63 22 -87 26 -37 6 -54 17 -105 71 -33 34 -66 63
-72 63 -7 0 -37 -24 -68 -54z m124 -33 l41 -46 -34 -29 c-19 -15 -42 -48 -52
-73 -23 -55 -47 -65 -80 -34 -37 35 -48 80 -29 125 16 40 78 104 100 104 7 0
32 -21 54 -47z m-190 -85 c-4 -35 4 -60 34 -105 25 -38 32 -55 26 -71 -7 -19
-16 -22 -62 -22 -45 0 -59 4 -81 27 -26 25 -61 122 -54 145 10 28 141 52 137
26z m379 -10 c31 -15 32 -35 6 -105 l-16 -43 -31 16 c-23 12 -46 15 -93 11
-70 -7 -91 5 -80 46 7 31 44 76 70 88 27 11 108 4 144 -13z m-27 -179 c16 -17
33 -47 39 -67 22 -80 10 -97 -75 -108 -44 -7 -45 -6 -45 20 0 30 -31 96 -54
115 -16 14 -22 52 -9 64 3 4 31 7 61 7 47 0 57 -4 83 -31z m-343 -34 c97 -2
110 -14 80 -75 -13 -25 -34 -51 -48 -58 -28 -14 -107 -11 -154 7 -26 11 -28
14 -22 51 10 66 27 93 50 84 12 -4 54 -9 94 -9z m202 -45 c46 -64 35 -123 -34
-189 -31 -30 -38 -33 -60 -23 -13 6 -36 26 -51 46 l-26 35 39 39 c22 22 43 54
47 71 12 55 53 66 85 21z"/>
<path d="M5190 4738 c-36 -11 -116 -35 -178 -55 l-114 -35 7 -36 c11 -61 20
-69 89 -82 36 -7 71 -18 77 -26 27 -33 -20 -132 -76 -158 -37 -18 -46 -36 -17
-36 52 0 115 72 127 148 7 46 12 48 79 31 36 -9 55 -7 115 11 65 19 71 23 71
48 0 45 19 100 45 131 37 43 32 51 -32 50 -32 0 -74 6 -93 14 -32 14 -41 13
-100 -5z m161 -38 c26 0 30 -3 23 -17 -4 -10 -14 -46 -23 -79 l-16 -62 -53
-17 c-51 -16 -56 -15 -175 10 -162 35 -157 33 -168 62 -5 14 -8 27 -6 29 2 2
75 26 162 52 148 46 161 48 192 36 18 -8 46 -14 64 -14z"/>
<path d="M95 4675 c-51 -50 -17 -135 54 -135 49 0 81 32 81 81 0 72 -84 106
-135 54z"/>
<path d="M2245 4616 c-30 -30 -55 -59 -55 -64 0 -5 -22 -12 -48 -15 -26 -3
-67 -13 -91 -23 l-43 -17 6 -50 c4 -28 15 -67 25 -88 18 -37 18 -39 0 -77 -11
-21 -22 -61 -25 -89 l-6 -50 43 -17 c23 -10 64 -20 90 -23 37 -4 50 -11 60
-30 14 -26 96 -103 109 -103 14 0 83 60 107 93 19 26 33 33 71 38 26 4 64 14
86 23 l38 16 -4 53 c-2 29 -12 68 -21 86 -16 33 -16 37 2 86 10 28 21 68 23
90 3 35 0 41 -25 53 -15 7 -53 19 -85 25 -50 11 -64 19 -117 75 -34 34 -66 62
-73 62 -6 0 -36 -24 -67 -54z m125 -32 l42 -46 -35 -29 c-19 -16 -43 -49 -53
-74 -23 -56 -48 -66 -80 -33 -31 30 -43 74 -32 116 9 34 81 112 103 112 7 0
32 -21 55 -46z m-191 -86 c-4 -35 4 -60 34 -104 18 -29 31 -58 29 -71 -3 -21
-9 -23 -62 -23 -53 0 -60 3 -88 34 -31 35 -61 131 -46 146 25 24 136 38 133
18z m379 -10 c31 -15 32 -35 6 -105 l-16 -43 -31 16 c-23 12 -46 15 -93 11
-47 -5 -65 -3 -74 8 -23 28 21 109 70 129 22 8 106 -1 138 -16z m-28 -176 c15
-16 33 -46 39 -68 23 -82 12 -99 -74 -110 -44 -7 -45 -6 -45 20 0 30 -31 96
-54 115 -19 16 -21 57 -3 64 6 3 34 6 60 6 40 1 53 -4 77 -27z m-342 -37 c97
-2 110 -14 80 -75 -13 -25 -34 -51 -48 -58 -44 -23 -180 2 -180 33 0 6 7 35
16 64 14 48 17 52 37 45 12 -4 55 -9 95 -9z m207 -52 c42 -62 30 -116 -39
-182 -34 -33 -37 -34 -62 -20 -15 7 -38 28 -51 46 l-24 32 39 39 c22 22 43 54
47 71 6 30 27 50 52 51 7 0 24 -17 38 -37z"/>
<path d="M4335 4495 c-16 -15 -25 -36 -25 -55 0 -71 91 -107 140 -55 72 77
-41 185 -115 110z"/>
<path d="M5292 4479 c-78 -25 -93 -33 -87 -47 3 -9 13 -46 22 -82 19 -81 12
-155 -23 -258 -33 -95 -35 -170 -5 -238 39 -88 135 -165 205 -167 17 0 84 17
148 37 113 36 117 38 147 82 42 64 58 141 43 211 -17 84 -53 136 -135 197
-103 75 -156 147 -187 254 -7 23 -18 42 -24 41 -6 0 -53 -14 -104 -30z m108
-46 c29 -92 97 -179 191 -244 66 -47 103 -98 120 -164 20 -78 -7 -181 -58
-227 -11 -10 -70 -33 -133 -52 l-113 -35 -48 21 c-55 23 -113 82 -137 137 -23
54 -19 145 11 221 l25 65 84 26 c97 30 113 38 101 50 -5 5 -43 -2 -88 -16 -44
-14 -83 -25 -87 -25 -4 0 -4 15 -1 33 3 19 0 65 -7 103 -19 113 -21 106 40
125 81 25 87 24 100 -18z"/>
<path d="M7751 4378 c-13 -4 -208 -89 -435 -189 -412 -181 -456 -205 -456
-251 0 -12 34 -99 77 -195 94 -215 107 -228 199 -198 28 9 44 -25 18 -40 -38
-22 -64 -55 -64 -82 0 -31 141 -357 167 -385 29 -32 73 -21 279 70 109 49 304
135 432 191 231 102 263 123 261 166 0 11 -35 98 -78 194 -90 203 -106 222
-173 204 -32 -9 -45 -9 -50 0 -13 20 -9 37 7 37 25 0 65 46 65 74 0 28 -143
362 -166 387 -19 21 -54 28 -83 17z m144 -212 c54 -124 76 -182 71 -199 -5
-20 -69 -52 -440 -215 -239 -106 -441 -192 -449 -192 -8 0 -21 8 -29 18 -20
23 -158 342 -158 364 0 10 10 24 23 32 24 16 779 351 837 372 21 7 41 9 51 3
9 -4 51 -87 94 -183z m-1 -335 c-5 -4 -115 -54 -244 -111 -129 -57 -283 -125
-341 -151 l-107 -47 -10 23 c-10 22 -2 27 341 178 329 145 353 154 361 136 6
-12 6 -23 0 -28z m150 -13 c8 -13 47 -96 87 -186 59 -135 70 -167 62 -185 -7
-15 -47 -38 -129 -73 -66 -29 -257 -113 -426 -188 -169 -75 -318 -136 -332
-136 -13 0 -28 6 -33 13 -22 28 -153 339 -153 362 0 31 -10 26 495 249 204 90
380 165 392 165 13 1 29 -8 37 -21z"/>
<path d="M7397 4043 c-106 -194 -106 -193 -84 -193 7 0 32 36 56 81 24 44 45
78 47 76 3 -3 -9 -58 -25 -123 -19 -74 -27 -122 -21 -128 5 -5 11 -8 14 -5 13
14 186 372 186 384 0 32 -22 1 -76 -107 -30 -60 -57 -109 -59 -107 -2 2 7 49
21 104 42 176 30 179 -59 18z"/>
<path d="M7925 3755 c-31 -30 -32 -73 -5 -108 39 -49 106 -43 135 12 42 83
-65 162 -130 96z"/>
<path d="M7745 3675 c-44 -43 -31 -112 25 -135 35 -15 84 0 100 31 30 55 -10
129 -70 129 -19 0 -40 -9 -55 -25z"/>
<path d="M7564 3596 c-56 -47 -20 -146 52 -146 57 0 105 87 71 131 -33 43 -84
49 -123 15z"/>
<path d="M8014 3566 c-54 -46 -30 -127 42 -142 24 -4 37 0 62 21 48 40 44 103
-9 130 -39 21 -64 19 -95 -9z"/>
<path d="M7379 3511 c-17 -18 -29 -40 -29 -56 0 -34 50 -85 84 -85 34 0 75 38
82 77 5 27 1 37 -24 63 -39 39 -74 39 -113 1z"/>
<path d="M7829 3481 c-17 -18 -29 -40 -29 -56 0 -35 50 -85 85 -85 35 0 85 50
85 85 0 35 -50 85 -85 85 -16 0 -38 -12 -56 -29z"/>
<path d="M7215 3448 c-75 -41 -50 -158 35 -158 82 0 112 118 39 155 -33 18
-47 18 -74 3z"/>
<path d="M7665 3419 c-53 -30 -62 -94 -19 -134 54 -50 134 -17 134 55 0 21 -8
47 -17 59 -22 25 -71 35 -98 20z"/>
<path d="M7483 3340 c-28 -12 -43 -40 -43 -84 0 -68 86 -101 135 -51 42 41 31
105 -22 133 -25 14 -40 14 -70 2z"/>
<path d="M7300 3257 c-77 -40 -52 -158 34 -157 73 1 111 81 64 134 -28 31 -65
40 -98 23z"/>
<path d="M1535 4335 c-62 -62 2 -162 85 -134 82 29 57 159 -30 159 -19 0 -40
-9 -55 -25z"/>
<path d="M1243 3985 c-116 -31 -268 -91 -301 -120 -24 -21 -25 -24 -12 -54 7
-17 10 -35 6 -38 -3 -4 -46 -23 -96 -44 -78 -33 -91 -36 -99 -22 -10 19 -35 7
-27 -13 3 -7 1 -16 -4 -19 -5 -3 -12 4 -15 15 -9 27 -31 20 -28 -9 3 -27 -14
-28 -22 -1 -3 11 -13 20 -21 20 -17 0 -18 -14 -4 -41 8 -14 7 -19 -2 -19 -7 0
-18 10 -23 23 -6 12 -14 20 -20 17 -11 -5 -11 -16 0 -42 4 -11 3 -18 -5 -18
-6 0 -14 9 -17 20 -3 11 -12 20 -20 20 -11 0 -13 -7 -8 -30 7 -31 -8 -43 -19
-15 -10 26 -29 17 -22 -10 6 -25 -7 -35 -19 -14 -12 18 -28 4 -31 -28 -3 -22
1 -32 14 -37 9 -3 23 -9 31 -12 10 -5 13 -1 8 15 -3 14 0 21 9 21 8 0 14 -7
14 -15 0 -8 7 -15 16 -15 12 0 15 6 10 25 -4 15 -2 25 5 25 6 0 13 -9 16 -20
3 -11 12 -20 20 -20 11 0 13 7 8 30 -8 36 7 40 23 5 6 -14 17 -25 23 -25 11 0
9 16 -6 53 -10 24 12 22 25 -3 17 -31 33 -25 26 10 -6 31 7 42 18 15 9 -24 26
-17 26 10 0 28 15 34 24 9 8 -20 28 -7 22 14 -8 24 181 103 195 81 5 -8 9 -17
9 -21 0 -4 11 -15 24 -23 22 -15 29 -14 114 20 99 40 263 130 299 165 33 31
30 74 -6 111 -35 35 -40 35 -158 4z m135 -21 c35 -24 28 -59 -18 -93 -87 -63
-336 -179 -352 -163 -4 4 -19 34 -32 67 -19 47 -22 63 -13 72 23 24 328 129
382 132 6 1 21 -6 33 -15z"/>
<path d="M4680 3998 c0 -10 64 -152 276 -612 36 -76 63 -140 61 -142 -2 -2
-176 64 -387 146 -238 93 -388 146 -393 141 -6 -6 15 -38 56 -83 l66 -72 388
-180 c233 -107 401 -179 420 -179 17 -1 39 6 49 13 19 17 57 96 51 108 -2 4
-97 174 -211 379 l-207 371 -74 61 c-73 60 -95 72 -95 49z m302 -409 c87 -154
176 -314 198 -355 l42 -74 -54 21 c-29 12 -64 25 -78 30 -21 8 -51 66 -188
363 -89 194 -162 356 -162 360 0 4 19 -9 42 -29 33 -28 78 -99 200 -316z
m-197 -291 c242 -94 442 -172 444 -174 10 -9 -13 -56 -35 -70 -30 -20 6 -34
-479 190 -298 138 -344 163 -375 199 -26 31 -30 39 -15 33 11 -4 218 -84 460
-178z"/>
<path d="M4640 3986 c0 -16 196 -452 213 -474 6 -7 14 -9 19 -4 10 10 -205
485 -221 490 -6 2 -11 -3 -11 -12z"/>
<path d="M6192 3877 c-69 -74 32 -179 112 -116 35 27 36 86 3 117 -32 30 -87
29 -115 -1z"/>
<path d="M8590 3873 c-61 -22 -79 -95 -35 -138 50 -51 135 -15 135 58 0 49
-57 95 -100 80z"/>
<path d="M1380 3615 c-138 -40 -225 -70 -345 -119 -112 -46 -135 -61 -135 -86
0 -13 -14 -27 -40 -40 -22 -11 -40 -26 -40 -34 0 -7 10 -36 21 -65 23 -54 45
-64 91 -40 14 8 23 8 31 0 16 -16 56 -13 114 9 187 71 489 231 506 267 20 44
-34 145 -77 142 -6 0 -63 -15 -126 -34z m155 -19 c9 -13 17 -37 18 -52 2 -23
-6 -33 -48 -62 -101 -67 -456 -232 -501 -232 -16 0 -74 116 -74 148 0 14 17
27 60 46 106 48 282 112 385 140 55 15 105 29 110 31 24 8 35 4 50 -19z"/>
<path d="M1313 3555 c-124 -38 -305 -108 -342 -132 -14 -9 -20 -18 -14 -24 6
-6 40 4 89 27 71 32 284 106 373 130 37 10 55 34 24 34 -10 -1 -68 -16 -130
-35z"/>
<path d="M6456 3613 c-3 -10 -21 -112 -41 -228 -20 -115 -38 -211 -39 -212 -1
-2 -52 87 -112 197 -59 110 -114 200 -121 200 -7 0 -13 -3 -13 -7 0 -5 48
-134 106 -288 115 -306 114 -300 84 -442 -11 -50 -13 -52 -47 -55 -47 -4 -76
-41 -75 -97 2 -121 120 -164 160 -59 13 33 13 43 -3 90 -16 50 -16 58 1 155
l17 103 34 6 c19 4 35 5 37 3 2 -2 27 -47 54 -99 38 -71 49 -102 45 -122 -7
-38 3 -71 33 -107 31 -38 81 -42 109 -11 13 14 22 17 29 10 5 -5 25 -10 42
-10 35 0 74 37 74 71 0 30 -24 22 -37 -11 -8 -22 -18 -30 -35 -30 -34 0 -48
18 -48 60 0 35 -20 74 -50 97 -19 16 -63 16 -78 1 -14 -14 -9 -21 -66 82 l-48
85 7 318 c5 218 4 317 -3 317 -6 0 -13 -8 -16 -17z"/>
<path d="M2868 3591 c-27 -24 -33 -36 -33 -71 0 -61 32 -84 232 -164 191 -77
194 -77 214 -4 6 24 15 38 22 35 7 -2 92 -30 190 -61 143 -46 177 -60 177 -75
0 -10 8 -25 18 -34 22 -20 144 -59 153 -49 12 13 41 113 35 120 -11 10 -119
42 -145 42 -14 0 -32 -7 -42 -16 -16 -14 -32 -11 -191 41 -95 30 -178 57 -185
60 -10 3 -9 14 2 45 24 67 18 71 -183 118 -99 23 -192 42 -206 42 -14 0 -40
-13 -58 -29z m256 -41 c94 -22 171 -42 173 -43 1 -2 -11 -45 -28 -96 -20 -57
-36 -91 -43 -88 -6 3 -81 33 -166 67 -196 79 -229 111 -179 174 27 34 41 34
243 -14z"/>
<path d="M2320 3573 c-61 -22 -79 -95 -35 -138 64 -65 163 11 129 100 -6 15
-55 46 -71 44 -4 0 -15 -3 -23 -6z"/>
<path d="M4252 3568 c6 -16 479 -200 497 -193 9 3 11 9 5 15 -12 12 -472 190
-491 190 -8 0 -13 -5 -11 -12z"/>
<path d="M9704 3480 c-27 -11 -50 -42 -154 -207 -75 -120 -82 -136 -76 -168 8
-43 -10 -55 -48 -30 -48 31 -123 18 -147 -26 -31 -59 -129 -345 -129 -378 0
-50 18 -65 164 -141 172 -89 169 -91 330 148 59 87 96 152 96 168 0 41 -28 82
-70 104 -41 21 -46 50 -9 50 10 0 25 10 33 23 32 50 146 338 146 369 -1 69
-71 114 -136 88z m80 -41 c17 -13 26 -30 26 -48 0 -32 -134 -356 -147 -356
-19 1 -163 80 -163 90 0 17 179 299 201 318 28 22 50 22 83 -4z m-361 -396
c31 -16 33 -20 11 -44 -11 -12 -25 -16 -52 -12 -28 4 -41 0 -53 -14 -27 -30
-112 -278 -104 -302 7 -23 188 -121 223 -121 23 0 31 9 122 142 78 114 89 151
51 176 -22 15 -27 38 -12 60 7 11 16 10 48 -7 41 -21 53 -37 53 -73 0 -29
-207 -327 -237 -341 -22 -10 -39 -4 -151 53 -93 47 -130 72 -140 91 -11 24 -5
45 55 209 81 219 93 231 186 183z m115 18 c11 -6 3 -29 -33 -102 -26 -52 -48
-95 -50 -97 -1 -1 -22 9 -46 23 -24 13 -52 25 -61 25 -21 0 -23 10 -5 35 10
13 22 16 42 12 46 -8 69 7 94 62 24 51 34 58 59 42z m57 -91 c-32 -62 -31 -87
1 -121 25 -26 25 -28 9 -53 -10 -14 -21 -26 -26 -26 -16 0 -64 24 -86 43 l-22
20 21 41 c11 22 36 69 55 103 30 55 37 62 54 53 18 -10 18 -12 -6 -60z m-221
-100 c14 -5 45 -29 70 -54 25 -24 62 -50 81 -57 19 -7 35 -17 35 -22 0 -18
-104 -157 -118 -157 -20 0 -183 90 -188 104 -4 10 8 46 55 169 11 29 25 33 65
17z"/>
<path d="M8984 3256 c-58 -50 -24 -140 52 -140 28 0 42 7 60 28 37 42 26 103
-23 125 -36 17 -59 13 -89 -13z"/>
<path d="M1993 3143 c-12 -2 -33 -16 -47 -30 -32 -31 -36 -99 -8 -132 18 -22
343 -161 378 -161 11 0 25 5 30 10 16 16 46 1 38 -19 -13 -33 -16 -99 -5 -120
21 -38 54 -50 243 -86 194 -37 216 -37 249 1 18 20 99 260 99 291 0 10 -8 32
-19 48 -14 24 -53 46 -187 108 -221 101 -262 101 -300 2 -19 -51 -48 -61 -58
-21 -5 22 -20 28 -183 66 -214 50 -203 48 -230 43z m194 -64 c98 -23 181 -44
185 -48 11 -10 -44 -181 -59 -181 -7 0 -85 30 -173 66 -168 70 -206 97 -194
138 5 18 48 66 59 66 2 0 84 -18 182 -41z m573 -58 c134 -62 166 -81 174 -102
6 -19 -1 -56 -33 -157 -56 -177 -44 -171 -247 -133 -227 43 -221 41 -240 62
-12 14 -15 30 -11 65 6 54 14 65 45 53 18 -7 22 -16 22 -47 0 -22 6 -45 14
-51 14 -12 253 -61 298 -61 34 0 48 21 83 127 41 127 41 128 -95 195 -138 68
-167 78 -197 65 -13 -6 -23 -14 -23 -18 0 -17 -31 -37 -50 -32 -18 5 -20 11
-14 37 9 45 22 66 47 76 29 11 36 9 227 -79z m-135 -13 c16 -7 25 -19 25 -35
0 -27 -23 -88 -37 -96 -11 -7 -223 62 -223 73 0 35 10 38 67 20 67 -21 87 -17
114 21 24 33 20 32 54 17z m149 -68 c100 -47 98 -42 57 -170 -19 -60 -32 -86
-44 -88 -10 -2 -61 4 -113 13 -80 15 -94 20 -94 37 0 27 25 83 54 121 14 18
31 54 37 80 7 26 14 47 15 47 1 0 40 -18 88 -40z m-287 -61 l102 -32 -14 -26
c-7 -15 -16 -43 -20 -64 -7 -38 -12 -41 -39 -31 -11 4 -16 19 -16 44 0 44 -10
55 -79 78 -29 10 -52 21 -52 25 1 4 1 14 1 22 0 20 0 20 117 -16z"/>
<path d="M372 3010 c-30 -28 -36 -62 -18 -98 26 -51 90 -59 133 -16 49 49 10
134 -61 134 -19 0 -42 -9 -54 -20z"/>
<path d="M7630 2954 c-128 -75 -233 -143 -330 -217 -79 -60 -92 -76 -86 -102
4 -15 -3 -26 -24 -40 -38 -25 -38 -50 1 -103 34 -47 54 -52 92 -22 20 16 31
18 51 11 21 -9 34 -4 83 29 153 102 429 345 439 385 10 42 -54 125 -96 125 -9
0 -67 -30 -130 -66z m144 30 c27 -10 58 -71 47 -91 -23 -44 -376 -339 -453
-379 -26 -13 -27 -13 -78 57 -52 69 -52 70 -34 90 26 29 202 157 289 209 59
36 206 119 212 120 1 0 8 -3 17 -6z"/>
<path d="M7630 2907 c-218 -125 -405 -267 -351 -267 4 0 26 14 47 31 56 45
227 159 314 209 90 52 86 48 74 60 -6 6 -37 -6 -84 -33z"/>
<path d="M4120 2969 c0 -6 12 -26 26 -44 l26 -34 -21 -27 c-12 -15 -21 -39
-21 -55 0 -28 9 -42 181 -265 75 -97 78 -103 69 -135 -14 -47 -12 -77 6 -140
20 -67 97 -148 160 -167 98 -29 121 -23 517 136 203 81 372 153 374 160 4 9
-76 125 -128 185 -4 5 -103 -21 -219 -58 -201 -63 -213 -66 -223 -49 -5 11
-29 38 -52 60 -53 52 -126 78 -199 72 l-51 -4 -110 143 c-60 80 -120 153 -132
165 -25 23 -64 26 -99 7 -23 -12 -27 -10 -55 24 -30 37 -49 47 -49 26z m184
-81 c14 -13 75 -88 135 -167 l109 -145 79 0 c67 -1 85 -5 127 -30 30 -18 59
-46 78 -76 l30 -48 76 24 c42 13 139 44 215 68 l138 44 41 -51 c50 -64 72 -97
67 -101 -2 -2 -162 -67 -356 -145 -306 -122 -360 -141 -408 -141 -31 0 -70 6
-88 13 -106 45 -167 166 -138 275 l12 42 -123 160 c-136 176 -149 200 -127
226 17 21 89 74 100 74 4 0 19 -10 33 -22z"/>
<path d="M4594 2440 c-33 -13 -54 -50 -54 -93 0 -53 43 -97 95 -97 99 0 133
140 45 185 -32 17 -54 18 -86 5z m86 -40 c28 -28 27 -84 -2 -104 -63 -44 -138
17 -103 84 23 44 71 54 105 20z"/>
<path d="M5676 2959 c-20 -16 -26 -29 -26 -59 0 -47 24 -78 67 -86 27 -5 37
-1 63 24 45 45 40 101 -11 127 -38 20 -62 19 -93 -6z"/>
<path d="M8436 2877 c-31 -31 -56 -60 -56 -66 0 -6 -16 -11 -35 -11 -19 0 -60
-10 -91 -21 l-56 -21 6 -45 c3 -25 14 -64 25 -88 19 -43 19 -44 1 -82 -11 -21
-22 -61 -26 -89 l-6 -51 43 -17 c24 -10 65 -20 91 -23 41 -5 51 -11 63 -34 8
-15 35 -44 59 -64 53 -43 60 -41 132 38 43 46 56 55 97 60 25 4 62 13 82 21
32 14 35 19 35 55 0 23 -9 64 -20 92 -17 45 -17 55 -5 78 21 41 35 134 23 148
-13 16 -101 43 -138 43 -19 0 -34 11 -55 38 -30 39 -73 78 -98 88 -9 3 -36
-15 -71 -49z m123 -32 l41 -45 -38 -35 c-21 -19 -44 -52 -52 -74 -18 -56 -46
-63 -81 -21 -32 38 -38 63 -27 108 9 35 79 112 102 112 7 0 32 -20 55 -45z
m-189 -109 c0 -22 12 -51 35 -85 29 -42 34 -55 25 -71 -17 -31 -99 -28 -139 6
-30 25 -68 119 -59 146 5 15 65 36 106 37 30 1 32 -1 32 -33z m363 18 c52 -18
53 -21 21 -111 -15 -41 -15 -41 -42 -27 -17 9 -49 14 -87 12 -33 -1 -68 3 -79
8 -16 10 -17 15 -7 47 27 79 96 105 194 71z m-24 -170 c29 -21 60 -89 61 -131
0 -38 -18 -50 -83 -59 l-44 -6 -6 42 c-3 26 -17 57 -36 80 -30 37 -39 69 -24
83 13 14 109 7 132 -9z m-326 -52 c43 4 69 1 81 -8 17 -12 17 -15 -2 -57 -26
-58 -67 -82 -132 -74 -25 3 -58 11 -74 18 -25 12 -27 16 -21 48 4 20 13 51 21
69 13 33 14 33 39 16 20 -13 40 -16 88 -12z m202 -49 c27 -40 32 -81 14 -116
-15 -30 -81 -97 -94 -97 -11 1 -51 34 -78 67 -18 21 -18 22 21 61 22 22 43 54
47 71 6 30 27 50 52 51 7 0 24 -17 38 -37z"/>
<path d="M1689 2777 c-42 -32 -50 -84 -16 -121 55 -61 161 -10 141 69 -13 52
-86 82 -125 52z"/>
<path d="M598 2582 c-143 -143 -188 -193 -188 -213 0 -17 -25 -50 -91 -116
-70 -72 -90 -98 -87 -116 2 -19 -23 -51 -115 -149 l-117 -125 0 -51 c0 -47 2
-51 34 -66 46 -21 114 -20 151 3 17 10 72 57 123 105 69 64 101 86 121 86 20
0 48 21 116 90 54 54 98 90 110 90 24 0 405 377 405 400 0 23 -232 250 -255
250 -12 0 -92 -72 -207 -188z m327 48 l110 -110 -185 -185 c-102 -102 -189
-185 -195 -185 -13 0 -215 202 -215 215 0 10 360 375 370 375 3 0 55 -50 115
-110z m-395 -575 c-46 -47 -89 -85 -95 -85 -6 0 -48 38 -95 85 l-85 85 90 90
90 90 90 -90 90 -90 -85 -85z m-205 -26 l60 -60 -74 -71 -74 -71 -15 26 c-18
29 -43 43 -96 53 l-36 6 81 89 c45 49 84 89 88 89 4 0 33 -27 66 -61z m-143
-176 c25 -22 23 -59 -4 -77 -35 -25 -111 -21 -144 7 -33 29 -27 58 19 81 38
19 102 14 129 -11z"/>
<path d="M640 2551 c-88 -88 -160 -164 -160 -170 0 -29 38 1 175 139 82 83
151 150 155 150 3 0 21 -16 40 -35 32 -33 60 -45 60 -27 0 10 -93 102 -103
102 -4 0 -79 -72 -167 -159z"/>
<path d="M3687 2469 c-10 -6 -22 -21 -27 -34 -8 -20 -17 -24 -62 -27 -68 -4
-69 -22 0 -26 47 -3 52 -5 52 -27 0 -22 -5 -24 -52 -27 -74 -4 -75 -26 -1 -30
51 -3 58 -6 61 -24 3 -20 -3 -23 -57 -29 -34 -4 -61 -11 -61 -16 0 -5 6 -9 13
-10 6 0 32 -1 57 -2 41 -2 45 -4 48 -29 3 -28 2 -28 -52 -28 -43 0 -56 -3 -56
-15 0 -12 13 -15 55 -15 52 0 55 -1 55 -25 0 -24 -3 -25 -55 -25 -42 0 -55 -3
-55 -15 0 -12 13 -15 55 -15 52 0 55 -1 55 -24 0 -23 -4 -25 -52 -28 -74 -4
-77 -28 -4 -28 52 0 56 -2 56 -24 0 -28 -16 -36 -72 -36 -27 0 -38 -4 -35 -12
3 -9 21 -12 56 -10 l51 3 0 -30 c0 -31 0 -31 -56 -31 -73 0 -70 -24 4 -28 52
-3 67 -14 36 -26 -21 -8 -13 -66 18 -138 20 -47 20 -54 8 -148 -23 -170 9
-334 72 -369 25 -14 29 -14 55 5 60 45 86 230 54 386 -13 62 -13 70 7 132 26
79 29 136 7 136 -8 0 -15 7 -15 15 0 12 13 15 56 15 73 0 70 24 -4 28 -47 3
-52 5 -52 27 0 22 5 24 50 27 28 2 50 8 50 13 0 6 -22 11 -50 13 -45 3 -50 5
-50 27 0 22 5 24 52 27 74 4 75 26 1 30 -50 3 -58 6 -61 24 -3 24 19 34 75 34
58 0 46 19 -14 22 -55 3 -58 5 -61 30 -3 26 -2 27 55 30 73 4 72 22 -2 26 -51
3 -55 5 -55 27 0 24 3 25 55 25 42 0 55 3 55 15 0 12 -13 15 -55 15 -52 0 -55
1 -55 24 0 23 4 25 52 28 74 4 77 28 4 28 -56 0 -56 0 -56 30 0 30 0 30 56 30
40 0 54 3 51 13 -2 7 -23 12 -55 12 -29 -1 -52 3 -52 8 0 4 -11 19 -25 32 -18
19 -35 25 -67 25 -24 0 -51 -5 -61 -11z m111 -36 c5 -10 13 -161 16 -335 l7
-318 -64 0 -64 0 -5 318 c-4 185 -2 324 3 335 7 12 22 17 54 17 32 0 47 -5 53
-17z m48 -724 c-4 -23 -14 -55 -22 -72 -17 -32 -16 -64 6 -187 25 -140 -18
-325 -72 -305 -9 4 -26 30 -39 58 -19 43 -23 71 -23 162 -1 61 3 136 8 167 7
48 6 65 -12 105 -11 27 -23 63 -27 81 l-7 32 97 0 98 0 -7 -41z"/>
<path d="M1608 2327 c-20 -17 -44 -44 -53 -59 -11 -17 -26 -28 -40 -28 -13 0
-53 -9 -90 -21 l-68 -21 6 -49 c3 -27 15 -68 25 -92 19 -42 19 -44 1 -79 -10
-19 -21 -58 -25 -86 l-7 -52 39 -17 c22 -9 63 -18 92 -21 28 -2 52 -9 52 -14
0 -14 90 -107 111 -113 24 -8 89 42 119 90 19 31 27 35 63 35 23 0 61 9 85 20
39 18 42 22 42 57 -1 21 -8 56 -17 78 -19 50 -19 69 -1 120 9 22 18 57 21 78
5 33 3 39 -22 52 -15 7 -58 19 -94 26 -47 9 -68 17 -72 30 -8 25 -92 99 -112
99 -10 0 -34 -15 -55 -33z m108 -43 l46 -46 -34 -28 c-20 -16 -45 -51 -56 -78
-34 -79 -63 -78 -102 4 -19 37 -20 49 -11 77 11 31 87 117 103 117 5 0 29 -21
54 -46z m-190 -91 c1 -7 2 -24 3 -37 0 -14 16 -44 34 -68 42 -57 39 -84 -12
-93 -81 -13 -141 41 -157 143 l-6 41 48 15 c56 17 88 17 90 -1z m379 -7 c32
-14 33 -16 25 -51 -5 -20 -14 -49 -20 -65 -12 -28 -12 -28 -47 -13 -22 9 -58
13 -95 11 -77 -4 -90 11 -62 68 34 70 106 88 199 50z m-40 -168 c33 -26 64
-91 65 -135 0 -29 -4 -33 -37 -42 -21 -6 -50 -11 -64 -11 -23 0 -27 5 -33 38
-3 21 -19 57 -36 80 -34 47 -38 78 -12 85 44 12 91 6 117 -15z m-380 -49 c17
-5 49 -7 71 -3 24 3 51 1 63 -5 20 -11 20 -13 6 -49 -24 -58 -57 -82 -116 -82
-63 0 -119 22 -119 48 0 10 7 40 16 66 13 37 20 46 33 41 9 -4 30 -11 46 -16z
m258 -51 c43 -67 33 -109 -41 -181 l-39 -39 -37 33 c-60 52 -62 64 -21 100 20
18 40 48 47 71 10 34 30 54 58 57 3 1 18 -18 33 -41z"/>
<path d="M6045 2311 c-92 -42 -115 -97 -117 -271 -1 -122 0 -130 26 -174 36
-62 100 -99 171 -99 66 0 129 29 264 121 l94 63 348 -2 c389 -2 392 -2 404 65
8 38 -14 89 -42 101 -10 5 -173 10 -362 13 l-344 4 -82 63 c-163 124 -269 158
-360 116z m195 -45 c94 -50 220 -146 220 -167 0 -33 -52 -79 -102 -92 -27 -7
-48 -16 -47 -22 0 -16 69 -7 106 15 43 25 43 25 43 -2 -1 -27 -47 -64 -170
-138 -104 -62 -146 -75 -202 -59 -54 14 -113 72 -127 125 -24 91 49 206 141
221 43 6 58 20 33 29 -28 11 -94 -15 -137 -54 l-41 -37 5 57 c12 141 139 198
278 124z m949 -190 c21 -19 27 -51 13 -72 -18 -28 -54 -31 -324 -26 l-278 5 0
59 0 59 284 -3 c263 -3 286 -4 305 -22z"/>
<path d="M2645 2158 c-12 -34 -45 -179 -45 -195 0 -16 29 -26 192 -66 105 -26
194 -44 198 -40 4 4 17 49 29 98 12 50 24 98 27 108 3 11 0 17 -10 17 -15 0
-17 -5 -35 -75 -5 -22 -14 -59 -20 -81 l-11 -42 -163 41 c-89 22 -165 43 -169
46 -4 3 2 42 12 86 11 44 19 88 20 98 0 20 -18 23 -25 5z"/>
<path d="M8716 1963 c-13 -13 -4 -23 84 -94 90 -73 107 -98 96 -141 -3 -13
-173 -191 -378 -395 -449 -448 -405 -425 -524 -278 -77 94 -88 103 -98 86 -9
-14 151 -200 179 -207 66 -17 73 -11 470 386 l380 380 0 51 c0 48 -3 54 -45
90 -87 76 -157 128 -164 122z"/>
<path d="M2530 1903 c-28 -25 -35 -46 -69 -186 -23 -95 -34 -160 -28 -164 15
-9 22 10 57 159 42 182 64 206 160 179 l25 -7 -30 -16 c-37 -20 -78 -63 -98
-103 -8 -16 -31 -100 -50 -185 -35 -149 -36 -157 -23 -215 26 -112 28 -157 11
-235 -27 -124 -29 -153 -10 -189 20 -39 75 -65 120 -57 51 10 81 51 105 145
26 103 45 141 111 222 63 79 61 73 105 249 44 177 43 238 -2 302 -37 52 -82
76 -203 105 -125 29 -144 29 -181 -4z m288 -57 c36 -19 78 -65 91 -99 18 -47
13 -101 -26 -253 -30 -121 -42 -154 -70 -188 -77 -95 -111 -156 -132 -238 -26
-102 -39 -128 -72 -147 -49 -28 -119 14 -119 72 0 16 7 57 16 91 21 81 21 185
0 272 l-17 70 40 163 c43 178 65 219 132 253 41 22 120 23 157 4z"/>
<path d="M2745 1758 c-6 -15 -125 -505 -125 -513 0 -3 6 -5 14 -5 10 0 31 72
75 253 65 268 67 277 51 277 -6 0 -13 -6 -15 -12z"/>
<path d="M4773 1875 c-67 -47 -30 -155 53 -155 27 0 74 56 74 87 -1 64 -75
104 -127 68z"/>
<path d="M5503 1883 c-27 -5 -63 -48 -63 -74 0 -48 42 -89 91 -89 11 0 34 14
51 30 25 26 29 36 24 63 -10 52 -51 80 -103 70z"/>
<path d="M8011 1863 c-32 -26 -38 -82 -12 -114 39 -50 119 -39 139 20 27 78
-64 145 -127 94z"/>
<path d="M812 1777 c-47 -50 -10 -137 58 -137 69 0 107 91 57 138 -32 30 -87
29 -115 -1z"/>
<path d="M9465 1675 c-51 -50 -17 -135 54 -135 49 0 81 32 81 81 0 72 -84 106
-135 54z"/>
<path d="M7385 1575 c-53 -52 -18 -135 56 -135 45 0 79 34 79 79 0 42 -38 81
-80 81 -19 0 -40 -9 -55 -25z"/>
<path d="M1966 1469 c-32 -25 -36 -84 -7 -120 27 -34 86 -32 117 5 39 44 29
97 -23 124 -32 17 -57 15 -87 -9z"/>
<path d="M4600 1418 c-91 -22 -168 -44 -173 -47 -10 -10 31 -186 53 -231 23
-45 56 -75 103 -95 l37 -15 -21 -29 c-34 -47 -34 -102 0 -236 16 -66 28 -121
25 -124 -2 -3 -10 1 -16 7 -17 17 -93 15 -128 -3 -60 -31 -76 -104 -47 -206
24 -81 53 -104 134 -104 60 0 67 2 93 32 47 52 46 77 -9 307 -28 115 -51 223
-51 240 0 92 107 154 190 111 53 -28 66 -57 121 -287 48 -201 56 -226 84 -255
43 -44 92 -51 149 -24 48 24 76 67 76 118 0 44 -27 133 -47 155 -56 62 -136
64 -200 5 -13 -11 -24 -19 -26 -16 -2 2 -18 63 -35 134 -29 121 -34 133 -70
166 -21 20 -45 38 -53 41 -11 4 -10 10 8 29 12 13 29 41 38 61 24 60 22 88
-26 271 -7 25 -15 37 -27 36 -9 0 -91 -18 -182 -41z m188 -30 c6 -23 9 -44 7
-47 -5 -5 -318 -81 -321 -78 0 1 -6 21 -11 45 -11 41 -10 42 16 49 14 4 82 21
151 39 69 17 130 32 136 33 6 0 16 -18 22 -41z m28 -114 c17 -91 -23 -170
-101 -199 -102 -40 -215 25 -227 129 l-3 28 150 38 c83 21 155 38 162 39 7 1
15 -15 19 -35z m317 -545 c29 -22 57 -100 57 -156 0 -75 -92 -125 -157 -84
-36 22 -63 94 -63 164 0 81 98 128 163 76z m-514 -126 c19 -20 31 -48 41 -92
12 -59 12 -67 -6 -100 -33 -62 -123 -73 -166 -20 -22 26 -41 92 -42 143 -1 84
112 129 173 69z"/>
<path d="M655 1178 l7 -253 -172 178 c-149 153 -200 197 -200 171 0 -4 84 -94
186 -200 l185 -193 6 -132 c6 -123 5 -132 -11 -126 -33 13 -84 -21 -102 -68
-38 -100 31 -226 131 -242 63 -10 115 49 115 129 0 43 -41 129 -73 154 -23 18
-25 27 -31 132 -3 61 -5 112 -2 112 2 0 39 -36 82 -80 75 -78 78 -82 75 -124
-8 -131 127 -242 212 -175 65 50 55 171 -19 246 -38 38 -49 43 -89 43 -33 0
-51 -6 -67 -22 l-21 -21 -87 94 -88 94 -7 268 c-6 227 -10 267 -22 267 -13 0
-14 -32 -8 -252z m372 -490 c33 -31 57 -100 49 -143 -19 -102 -123 -99 -176 6
-63 123 33 226 127 137z m-310 -130 c40 -39 57 -87 50 -142 -10 -71 -60 -94
-122 -56 -42 26 -69 82 -70 143 0 41 4 52 29 74 36 30 67 25 113 -19z"/>
<path d="M5765 1363 c-16 -14 -42 -42 -56 -61 -22 -29 -34 -36 -70 -39 -24 -3
-64 -13 -88 -24 l-44 -19 7 -46 c3 -25 14 -64 24 -87 17 -40 17 -43 -1 -80
-10 -21 -21 -60 -24 -87 -5 -46 -4 -49 26 -65 18 -9 55 -19 84 -22 48 -5 56
-11 105 -64 29 -32 61 -61 72 -64 24 -8 82 34 115 84 19 27 32 35 62 38 21 2
59 11 86 19 45 15 47 17 47 54 0 22 -9 64 -21 94 -19 52 -19 57 -3 87 9 18 19
58 21 89 l6 58 -49 16 c-27 8 -66 17 -87 18 -31 2 -41 9 -62 39 -27 41 -84 89
-106 89 -8 0 -27 -12 -44 -27z m94 -43 c22 -22 41 -45 41 -51 0 -5 -13 -21
-29 -34 -15 -14 -38 -47 -49 -74 -12 -27 -29 -52 -38 -55 -40 -15 -94 86 -74
139 11 29 87 115 101 115 4 0 25 -18 48 -40z m-183 -118 c5 -40 19 -69 50
-102 32 -35 23 -67 -21 -76 -52 -9 -93 4 -120 40 -25 33 -54 131 -42 142 9 10
99 33 116 31 8 -1 15 -17 17 -35z m372 17 c26 -9 32 -16 32 -40 0 -31 -28
-109 -39 -109 -4 0 -13 6 -20 13 -7 7 -41 12 -88 12 -93 0 -107 12 -76 71 35
69 91 84 191 53z m-26 -175 c28 -25 58 -92 58 -131 0 -33 -13 -41 -97 -58 -30
-6 -33 -4 -33 19 0 35 -16 74 -45 108 -29 35 -33 74 -7 82 33 9 103 -2 124
-20z m-407 -40 c26 -11 52 -13 89 -9 35 4 56 2 68 -7 16 -12 16 -15 -1 -55
-24 -53 -60 -76 -115 -76 -57 1 -116 27 -116 51 0 18 29 112 35 112 1 0 19 -7
40 -16z m291 -76 c8 -15 14 -38 14 -51 0 -29 -44 -97 -83 -128 l-29 -22 -44
44 c-24 24 -44 46 -44 50 0 4 18 25 40 47 23 22 43 54 46 72 13 61 65 55 100
-12z"/>
<path d="M6753 1273 c-53 -57 -185 -252 -208 -306 -16 -38 -16 -38 15 -67 16
-15 30 -32 30 -37 -1 -4 -22 -44 -49 -88 -39 -65 -52 -79 -69 -77 -22 3 -30
-12 -12 -23 20 -12 9 -25 -15 -19 -29 7 -32 -2 -8 -28 18 -20 4 -25 -27 -8
-28 15 -37 -8 -11 -26 31 -22 25 -37 -8 -20 -27 15 -41 12 -41 -6 0 -5 11 -13
25 -20 13 -6 22 -15 19 -19 -3 -5 -14 -5 -24 1 -26 14 -40 12 -40 -4 0 -8 9
-18 20 -21 28 -9 25 -27 -4 -19 -27 6 -46 -13 -22 -22 25 -10 20 -33 -5 -27
-16 5 -20 2 -15 -8 3 -8 9 -21 12 -30 3 -9 18 -15 40 -16 33 -1 44 9 24 22
-20 12 -9 25 15 19 29 -7 32 2 8 28 -18 20 -4 25 27 8 28 -15 37 8 11 26 -32
23 -25 37 8 19 22 -11 32 -12 37 -4 4 7 1 15 -7 20 -35 21 -43 28 -38 34 4 3
18 0 33 -6 35 -16 47 -2 19 21 -30 24 -29 32 2 24 18 -4 25 -2 25 9 0 8 -7 18
-16 21 -22 8 -8 25 16 19 22 -6 26 7 9 24 -8 8 3 36 42 102 52 89 53 90 76 76
57 -38 89 -4 191 203 77 159 87 208 49 246 -42 42 -81 36 -134 -21z m112 0
c23 -22 16 -60 -29 -163 -42 -96 -124 -240 -141 -246 -18 -7 -125 58 -125 76
0 34 138 241 215 323 29 31 56 34 80 10z"/>
<path d="M1363 1258 c-2 -5 -2 -12 2 -17 3 -5 1 -12 -5 -16 -18 -11 -11 -27
10 -22 24 6 38 -11 16 -19 -19 -7 -21 -34 -3 -34 7 0 18 5 24 11 7 7 13 7 17
0 4 -5 -3 -15 -14 -21 -11 -6 -20 -17 -20 -25 0 -19 10 -19 38 1 30 20 29 -2
0 -26 -31 -25 -14 -39 23 -18 34 20 42 1 8 -20 -29 -19 -10 -39 21 -22 26 14
43 3 17 -11 -28 -16 -20 -32 13 -25 17 3 30 1 30 -4 0 -6 -5 -10 -11 -10 -6 0
-9 -6 -6 -12 2 -7 13 -13 25 -13 15 0 37 -23 76 -80 l56 -79 -25 -26 c-14 -14
-25 -35 -25 -47 0 -29 111 -182 200 -275 68 -70 79 -78 113 -78 41 0 73 24 83
64 10 40 -96 237 -198 369 -33 41 -60 47 -96 21 -13 -9 -24 -14 -26 -13 -1 2
-26 37 -55 77 -60 84 -66 97 -52 107 21 12 11 27 -14 21 -28 -7 -33 5 -10 24
11 9 13 16 6 23 -7 7 -15 6 -26 -3 -8 -7 -19 -10 -23 -6 -4 4 4 15 17 25 33
25 19 48 -16 26 -14 -9 -28 -13 -31 -10 -4 4 3 14 16 22 12 9 22 22 22 29 0
18 -10 18 -36 -1 -29 -19 -41 -5 -13 16 31 23 16 46 -16 25 -15 -10 -26 -12
-30 -6 -3 6 1 13 9 16 19 7 21 34 3 34 -7 0 -18 -5 -24 -11 -7 -7 -13 -7 -17
-1 -3 6 -2 13 4 17 5 3 10 12 10 19 0 14 -58 17 -67 4z m465 -505 c58 -79 147
-232 163 -280 9 -29 8 -37 -7 -54 -33 -36 -63 -25 -137 54 -72 77 -187 232
-187 252 0 9 101 91 117 95 0 0 24 -30 51 -67z"/>
<path d="M9155 1110 c-77 -5 -113 -13 -155 -34 -46 -22 -80 -28 -205 -38
l-150 -13 3 -140 c1 -77 5 -157 8 -177 l6 -38 154 0 c123 0 161 -3 186 -16 17
-9 52 -19 77 -23 55 -8 61 -29 14 -51 -37 -17 -38 -36 -2 -32 27 3 69 39 69
59 0 7 4 13 8 13 5 0 12 -86 15 -191 7 -204 13 -230 59 -245 31 -9 38 -22 38
-72 0 -31 4 -42 13 -39 8 3 11 22 10 59 -3 50 -1 56 22 66 51 24 58 58 50 253
l-7 177 45 7 c147 22 245 171 203 308 -19 63 -56 110 -114 144 -42 25 -57 28
-147 29 -55 1 -145 -1 -200 -6z m209 -122 c17 -323 17 -328 -5 -328 -21 0 -21
-2 -14 -198 l8 -198 -32 -27 c-34 -28 -56 -33 -81 -17 -17 11 -29 110 -29 261
-1 132 -7 166 -32 172 -16 4 -19 15 -19 74 0 37 -3 132 -7 210 l-6 142 44 4
c24 2 72 4 106 5 l61 2 6 -102z m135 65 l46 -27 -29 -6 c-49 -9 -44 -30 7 -30
29 0 47 -5 50 -14 8 -21 -2 -26 -50 -26 -31 0 -43 -4 -40 -12 2 -8 23 -13 53
-13 45 0 63 -8 64 -27 0 -5 -25 -8 -55 -8 -42 0 -55 -3 -55 -15 0 -12 13 -15
55 -15 30 0 55 -2 55 -4 0 -26 -16 -36 -61 -36 -37 0 -49 -4 -49 -15 0 -11 12
-15 45 -15 35 0 43 -3 39 -15 -4 -8 -17 -15 -29 -15 -30 0 -55 -10 -55 -21 0
-5 10 -9 22 -9 20 0 20 -1 4 -19 -10 -11 -38 -26 -62 -35 l-43 -14 -5 41 c-3
23 -8 120 -11 216 l-6 174 32 -7 c18 -3 53 -18 78 -33z m-376 -95 c4 -66 7
-163 7 -214 l0 -93 -32 6 c-18 3 -49 12 -68 18 l-35 12 -8 173 c-4 95 -5 175
-3 178 7 7 108 41 122 42 7 0 13 -44 17 -122z m-170 -5 c4 -38 7 -110 7 -161
l0 -93 -137 3 -138 3 -6 145 c-4 80 -6 146 -5 147 2 2 193 20 237 22 l36 1 6
-67z"/>
<path d="M7540 1026 c-5 -15 -10 -34 -10 -41 0 -8 -12 -20 -27 -27 -31 -15
-40 -41 -78 -222 -31 -152 -59 -387 -51 -421 12 -48 125 -75 159 -37 37 40
177 520 177 604 0 14 -7 31 -15 38 -10 9 -13 24 -8 56 5 41 4 44 -22 54 -16 6
-48 14 -72 17 -39 5 -43 4 -53 -21z m113 -120 c21 -5 27 -12 27 -34 0 -68
-120 -488 -162 -565 -8 -16 -18 -19 -55 -14 -25 3 -50 11 -55 18 -26 40 66
597 102 619 7 4 35 2 64 -5 28 -7 63 -16 79 -19z"/>
<path d="M7616 748 c-15 -67 -48 -179 -72 -250 -24 -70 -44 -130 -44 -133 0
-3 6 -5 14 -5 17 0 92 219 131 380 29 121 30 130 12 130 -8 0 -23 -44 -41
-122z"/>
<path d="M3209 857 c-20 -18 -44 -45 -53 -59 -13 -19 -29 -28 -64 -33 -26 -4
-67 -15 -91 -26 l-44 -19 7 -46 c3 -25 14 -65 25 -88 18 -41 18 -44 0 -78 -10
-19 -21 -58 -25 -86 l-7 -52 39 -16 c22 -9 59 -19 84 -22 39 -4 52 -12 98 -63
29 -32 62 -61 72 -64 25 -8 90 41 120 90 18 30 27 35 59 35 21 0 59 7 85 16
l49 17 -6 57 c-2 31 -12 72 -22 90 -16 30 -16 35 -1 69 9 20 20 60 25 89 7 44
5 54 -8 61 -30 16 -86 30 -124 33 -31 2 -42 8 -53 29 -17 34 -92 99 -113 99
-9 0 -32 -15 -52 -33z m107 -43 l46 -46 -34 -28 c-20 -16 -45 -51 -56 -78 -12
-28 -29 -53 -38 -56 -40 -15 -94 86 -74 139 11 30 87 115 102 115 5 0 29 -21
54 -46z m-190 -112 c5 -40 19 -69 50 -102 40 -43 16 -79 -54 -80 -61 0 -114
61 -128 148 -6 38 -5 40 27 50 88 28 101 26 105 -16z m372 17 c26 -9 32 -16
32 -40 0 -24 -27 -109 -35 -109 -1 0 -16 7 -34 16 -21 10 -51 14 -92 12 -78
-4 -92 11 -62 68 35 69 91 84 191 53z m-33 -171 c33 -26 64 -91 65 -135 0 -33
-13 -41 -96 -58 -30 -6 -31 -5 -37 36 -3 23 -19 60 -36 84 -35 48 -40 81 -13
88 44 12 91 6 117 -15z m-400 -44 c27 -11 52 -14 86 -9 28 4 56 2 68 -5 20
-10 20 -12 6 -48 -24 -58 -57 -82 -116 -82 -63 0 -119 22 -119 48 0 18 29 112
35 112 1 0 20 -7 40 -16z m291 -76 c8 -15 14 -37 14 -49 0 -32 -43 -100 -79
-127 l-30 -22 -36 31 c-59 52 -60 61 -15 107 23 22 43 54 46 72 13 61 65 55
100 -12z"/>
<path d="M0 722 c0 -18 45 -141 100 -275 118 -283 135 -307 220 -307 43 0 56
5 86 33 28 26 37 42 41 77 4 39 -5 68 -72 224 -52 123 -72 183 -65 190 5 5 33
19 62 31 52 21 75 45 41 45 -26 -1 -125 -52 -136 -71 -7 -11 12 -66 67 -197
42 -100 76 -194 76 -209 0 -38 -25 -72 -66 -89 -29 -12 -39 -12 -68 0 -19 8
-41 25 -50 38 -8 12 -62 138 -121 278 -58 140 -108 256 -110 259 -3 2 -5 -10
-5 -27z"/>
<path d="M8460 597 c-54 -27 -61 -99 -13 -137 56 -44 133 -3 133 70 0 26 -39
67 -70 74 -14 3 -36 0 -50 -7z"/>
<path d="M1422 437 c-48 -51 -10 -137 61 -137 69 0 105 90 54 138 -32 30 -87
29 -115 -1z"/>
<path d="M6845 405 c-49 -48 -17 -135 50 -135 47 0 64 8 81 42 42 81 -67 158
-131 93z"/>
<path d="M4845 348 c-31 -16 -45 -39 -45 -71 0 -40 14 -62 50 -77 54 -22 110
15 110 74 0 38 -10 55 -41 71 -33 18 -47 18 -74 3z"/>
<path d="M2399 321 c-35 -35 -37 -71 -6 -105 53 -61 141 -30 141 49 0 29 -7
43 -28 61 -37 32 -71 30 -107 -5z"/>
</g>
</svg>
