<svg width="48" height="38" viewBox="0 0 48 38" fill="none" xmlns="http://www.w3.org/2000/svg">
<path d="M4.76837e-07 32.6C4.76837e-07 36.9328 12.8672 37.4 18.4 37.4C25.2528 37.4 30.8264 36.7344 33.8608 35.5664C34.969 36.6564 36.4347 37.3079 37.9864 37.4C38.6368 37.4 38.6192 37.3656 42.8312 36.4176C45.14 35.8976 46.824 33.5104 47.5768 29.6976C48.2621 25.4783 48.0902 21.1642 47.0712 17.0128C44.8536 7.1656 39.52 0.258401 34.9216 1.2968L31.02 2.1768C29.3792 2.5464 28.0944 3.8832 27.212 5.8824C21.4616 4.3208 20.8424 8.6 15.3136 7.808C10.48 7.1176 10.4 1.632 10.4 1.4C10.4003 1.05892 10.1843 0.755187 9.86198 0.643493C9.53971 0.531799 9.18207 0.636714 8.9712 0.904801C8.804 1.1176 5.0592 5.9696 5.8168 11.7992C1.4344 12.4936 0.800001 13.3608 0.800001 14.2V16.92C0.326722 17.1762 0.0229172 17.6623 4.76837e-07 18.2L4.76837e-07 32.6ZM7.9504 16.8832C13.9656 17.4779 20.0203 17.5617 26.0496 17.1336C26.1344 17.9336 26.2408 18.7496 26.3848 19.5808C21.0616 19.8896 7.0248 20.0656 2.4 18.4728V15.8C4.20191 16.3749 6.06455 16.7384 7.9504 16.8832ZM1.6 32.6V23.044C4.97766 23.9632 8.45098 24.4854 11.9496 24.6C12.2354 24.6179 12.509 24.4819 12.6674 24.2433C12.8258 24.0047 12.8449 23.6998 12.7174 23.4433C12.59 23.1868 12.3354 23.0179 12.0496 23C6.2008 22.636 3.1672 21.9384 1.6 21.3552V19.88C6.4072 21.7264 21.2336 21.496 26.6952 21.1672C27.6608 25.6704 29.5752 30.832 32.6104 34.3144C29.6448 35.2632 24.5832 35.8 18.4 35.8C6.812 35.8 1.6 33.9288 1.6 32.6ZM45.5104 17.3632C46.4812 21.2973 46.6499 25.3865 46.0064 29.3872C45.3936 32.496 44.1088 34.4896 42.48 34.8568C39.2744 35.5768 34.4 29.92 32.24 20.3512C30.08 10.7824 32.0696 3.5792 35.2736 2.8576C35.4591 2.81645 35.6485 2.7958 35.8384 2.796C39.0256 2.796 43.4784 8.3408 45.5104 17.3632ZM31.3712 3.7368L31.856 3.6272C26.8648 11.1808 31.3136 30.9416 39.0632 35.6272L38.5776 35.7368C36.948 36.1032 34.932 34.8568 33.0456 32.308C30.7498 28.9692 29.1494 25.2023 28.34 21.232C27.9651 19.56 27.7007 17.8652 27.5488 16.1584C26.9672 9.2024 28.7648 4.324 31.3712 3.7368ZM8.0952 5.9648C8.1752 9.6496 9.988 12.2392 13.3472 13.3592C13.7669 13.4988 14.2204 13.2717 14.36 12.852C14.4996 12.4323 14.2725 11.9788 13.8528 11.8392C10.4128 10.692 9.6128 7.8936 9.6984 5.3192C10.6487 7.53314 12.6971 9.08096 15.0864 9.3904C21.1456 10.2584 21.7832 6.1792 26.652 7.3904C25.9436 10.0448 25.6947 12.8008 25.916 15.5392C20.1368 15.9468 14.3338 15.8794 8.5656 15.3376C7.06087 12.4283 6.88932 9.0101 8.0952 5.9648ZM6.1216 13.3712C6.2803 13.9637 6.47752 14.5452 6.712 15.112C5.3468 14.9712 4.00368 14.6655 2.712 14.2016C3.81034 13.7865 4.95541 13.5077 6.1216 13.3712Z" fill="#00BF78"/>
</svg>
